<?xml version="1.0" encoding="UTF-8"?>
<svg version="1.1" xmlns="http://www.w3.org/2000/svg" width="1024" height="1024">
<path d="M0 0 C2.70396468 -0.00407209 5.40790483 -0.00931053 8.11186218 -0.01593018 C14.65585434 -0.02917982 21.19974252 -0.02642929 27.74373853 -0.01769225 C33.06832878 -0.01088124 38.39289015 -0.01001364 43.71748352 -0.0132637 C44.47904697 -0.0137234 45.24061041 -0.0141831 46.02525154 -0.01465673 C47.57297703 -0.01561603 49.12070252 -0.01658867 50.668428 -0.0175745 C65.1374973 -0.02610271 79.60650932 -0.0163348 94.07556921 -0.0001734 C106.45584432 0.01322743 118.836035 0.01089861 131.21630859 -0.00292969 C145.63817719 -0.01903113 160.05999575 -0.02527897 174.48187208 -0.0160929 C176.02349312 -0.01513738 177.56511417 -0.01419426 179.10673523 -0.0132637 C179.86498688 -0.01280088 180.62323852 -0.01233805 181.40446749 -0.0118612 C186.71466976 -0.00928496 192.02483994 -0.0136126 197.33503723 -0.02070236 C203.81784599 -0.02916852 210.30054597 -0.02673087 216.78334248 -0.01086013 C220.08277125 -0.00304547 223.38198478 -0.00141822 226.68141747 -0.00980759 C258.00425979 -0.08206542 285.06624925 5.527977 309.91210938 25.38818359 C310.90210938 26.04818359 311.89210938 26.70818359 312.91210938 27.38818359 C312.91210938 28.04818359 312.91210938 28.70818359 312.91210938 29.38818359 C313.49476563 29.64599609 314.07742188 29.90380859 314.67773438 30.16943359 C317.09239968 31.48652376 318.72951115 32.93906744 320.66210938 34.88818359 C321.27570313 35.49662109 321.88929688 36.10505859 322.52148438 36.73193359 C323.91210938 38.38818359 323.91210938 38.38818359 323.91210938 40.38818359 C324.57210938 40.38818359 325.23210937 40.38818359 325.91210938 40.38818359 C343.56798114 61.44840114 353.26216616 87.75440806 353.17953491 115.21264648 C353.18406603 116.33993227 353.18859714 117.46721806 353.19326556 118.62866402 C353.20583631 122.37276535 353.20429391 126.11671986 353.20263672 129.86083984 C353.20862664 132.55919423 353.21537767 135.2575375 353.22299194 137.95588684 C353.23953352 144.50622233 353.24509842 151.0565218 353.2462167 157.60687643 C353.24717066 162.93870811 353.25129824 168.27052801 353.25761795 173.60235596 C353.27521352 188.75864626 353.28445974 203.91490836 353.282957 219.07120895 C353.28287709 219.88656742 353.28279718 220.70192589 353.28271484 221.54199219 C353.28263308 222.35836025 353.28255132 223.17472832 353.28246708 224.01583481 C353.28165519 237.22888956 353.30077291 250.44183005 353.32899158 263.65485179 C353.35781699 277.26068567 353.37152651 290.866464 353.36980402 304.47232914 C353.36914333 312.09530023 353.3744934 319.7181516 353.39616013 327.34109497 C353.41449986 333.8345652 353.4186158 340.32786148 353.40514128 346.82134658 C353.39867449 350.12528927 353.4004966 353.42863142 353.41584778 356.732584 C353.55267132 388.24545742 347.47388518 415.15020906 327.91210938 440.38818359 C327.25210937 441.37818359 326.59210938 442.36818359 325.91210938 443.38818359 C325.25210937 443.38818359 324.59210938 443.38818359 323.91210938 443.38818359 C323.65429688 443.97083984 323.39648438 444.55349609 323.13085938 445.15380859 C321.81376921 447.5684739 320.36122553 449.20558537 318.41210938 451.13818359 C317.80367187 451.75177734 317.19523437 452.36537109 316.56835938 452.99755859 C314.91210938 454.38818359 314.91210938 454.38818359 312.91210938 454.38818359 C312.91210938 455.04818359 312.91210938 455.70818359 312.91210938 456.38818359 C291.44899069 474.38182826 264.94073099 483.76398784 236.99621582 483.64215088 C235.30884772 483.64683085 235.30884772 483.64683085 233.58739138 483.65160537 C229.85768509 483.6595154 226.12814469 483.65328917 222.3984375 483.64697266 C219.70828279 483.64968563 217.0181391 483.65317658 214.32798767 483.65759277 C207.80352409 483.66644644 201.27910674 483.66458282 194.75464141 483.65876749 C189.44804182 483.65423507 184.1414551 483.65364491 178.83485413 483.65581512 C178.07714455 483.65612159 177.31943498 483.65642806 176.53876451 483.65674381 C174.99908395 483.65738331 173.4594034 483.65803174 171.91972286 483.65868899 C157.51089328 483.66438049 143.10208922 483.65785297 128.69326383 483.64708826 C116.35262535 483.63815382 104.01202452 483.6397062 91.67138672 483.64892578 C77.31112089 483.65964932 62.95087739 483.66383128 48.59060812 483.65770125 C47.05686029 483.65706421 45.52311246 483.65643547 43.98936462 483.65581512 C42.85766529 483.6553523 42.85766529 483.6553523 41.70310333 483.65488012 C36.4081069 483.65315942 31.11312472 483.65605474 25.81813049 483.66077423 C19.35782336 483.66640627 12.89756477 483.66481806 6.43726313 483.65421274 C3.14649769 483.64898711 -0.14417114 483.64793791 -3.43493843 483.65351105 C-7.01403735 483.65901181 -10.59291225 483.65207759 -14.17199707 483.64215088 C-15.19527336 483.64661232 -16.21854964 483.65107377 -17.2728343 483.6556704 C-42.69526688 483.51979162 -68.09267859 474.06010654 -88.08789062 458.38818359 C-88.08789062 457.72818359 -88.08789062 457.06818359 -88.08789062 456.38818359 C-88.74789062 456.38818359 -89.40789062 456.38818359 -90.08789062 456.38818359 C-90.08789062 455.72818359 -90.08789062 455.06818359 -90.08789062 454.38818359 C-90.66539062 454.13166016 -91.24289062 453.87513672 -91.83789062 453.61083984 C-104.28202369 446.84866337 -114.89761207 429.11941034 -120.08789062 416.38818359 C-120.32701172 415.80214355 -120.56613281 415.21610352 -120.8125 414.61230469 C-126.88273369 399.55287925 -130.24186196 385.30851778 -130.22833252 369.02455139 C-130.23130364 367.89856661 -130.23427476 366.77258182 -130.23733592 365.61247629 C-130.24598987 361.84898376 -130.24752838 358.08552316 -130.24902344 354.32202148 C-130.25311897 351.61939305 -130.25865886 348.91676792 -130.2640686 346.21414185 C-130.2776155 338.87693291 -130.28367124 331.53972947 -130.28807926 324.20251012 C-130.29084845 319.61390713 -130.29508707 315.02530622 -130.29958344 310.43670464 C-130.31177245 297.71213571 -130.32207177 284.98756845 -130.32545853 272.26299381 C-130.32578788 271.04278762 -130.32578788 271.04278762 -130.32612388 269.7979308 C-130.32634216 268.98259782 -130.32656043 268.16726484 -130.32678533 267.32722479 C-130.32722878 265.67526249 -130.32767534 264.02330019 -130.328125 262.37133789 C-130.32834643 261.55192089 -130.32856786 260.73250389 -130.328796 259.88825607 C-130.33273923 246.62767827 -130.35018038 233.36715558 -130.37348452 220.10659904 C-130.39726159 206.46588182 -130.4096633 192.82519217 -130.41082644 179.1844539 C-130.41173976 171.53638641 -130.41740475 163.88839069 -130.43564606 156.24034309 C-130.45113326 149.72439214 -130.45611724 143.20853515 -130.44790795 136.69256926 C-130.44403132 133.37493284 -130.44645274 130.05763719 -130.4589653 126.73999977 C-130.56811572 95.9777312 -125.21878232 66.77913951 -105.08789062 42.38818359 C-104.42789062 42.38818359 -103.76789063 42.38818359 -103.08789062 42.38818359 C-102.85070312 41.82615234 -102.61351562 41.26412109 -102.36914062 40.68505859 C-100.79841366 37.86924318 -98.87317598 35.90862943 -96.58789062 33.63818359 C-95.79382813 32.83896484 -94.99976563 32.03974609 -94.18164062 31.21630859 C-92.08789062 29.38818359 -92.08789062 29.38818359 -90.08789062 29.38818359 C-90.08789062 28.72818359 -90.08789062 28.06818359 -90.08789062 27.38818359 C-89.42789063 27.38818359 -88.76789063 27.38818359 -88.08789062 27.38818359 C-88.08789062 26.72818359 -88.08789062 26.06818359 -88.08789062 25.38818359 C-85.91298414 23.72197373 -83.75106268 22.19797552 -81.46289062 20.70068359 C-80.78355469 20.25442627 -80.10421875 19.80816895 -79.40429688 19.34838867 C-54.21739354 3.09547621 -29.27324827 -0.07443223 0 0 Z " fill="#464AFE" transform="translate(369.087890625,270.61181640625)"/>
<path d="M0 0 C0.66 0.639375 1.32 1.27875 2 1.9375 C2 2.5975 2 3.2575 2 3.9375 C2.66 3.9375 3.32 3.9375 4 3.9375 C4.64834654 5.207053 5.29357815 6.47819706 5.9375 7.75 C6.47697266 8.81154297 6.47697266 8.81154297 7.02734375 9.89453125 C8.71312217 13.43534295 9.12591211 16.18242791 9.12995183 20.05631453 C9.13348025 21.12408972 9.13700867 22.19186491 9.14064401 23.29199693 C9.13884735 25.06152413 9.13884735 25.06152413 9.13701439 26.86679935 C9.14099213 28.74665762 9.14099213 28.74665762 9.14505023 30.66449282 C9.15230267 34.1653924 9.1532795 37.66627058 9.153273 41.16717666 C9.15434036 44.96757408 9.16112842 48.76796191 9.1671797 52.56835407 C9.1782671 60.11605629 9.18390687 67.66375385 9.18788858 75.21146278 C9.19289297 84.248062 9.20361975 93.28465216 9.21437032 102.32124604 C9.24001522 124.1657965 9.25503862 146.01035049 9.26788078 167.85491169 C9.27213412 175.08890506 9.27669981 182.32289816 9.2814641 189.5568912 C9.30672277 228.0046359 9.32877513 266.45238101 9.34119225 304.90013218 C9.34411367 313.81045597 9.34708117 322.72077975 9.35009766 331.63110352 C9.35046857 332.73812054 9.35083947 333.84513757 9.35122162 334.98570057 C9.36337924 370.88412024 9.39432612 406.7824909 9.43601918 442.68088754 C9.47878933 479.5738627 9.50543103 516.46681198 9.51066696 553.35981262 C9.51140743 558.56870646 9.51231812 563.77760026 9.51332474 568.98649406 C9.51351535 570.01167799 9.51370597 571.03686192 9.51390236 572.09311202 C9.51741842 588.60390672 9.5377278 605.11464012 9.56412137 621.6254123 C9.59024395 638.21662961 9.59800277 654.80777597 9.58702008 671.3990109 C9.58103601 681.25951926 9.58899307 691.11978725 9.61685092 700.98025931 C9.63408133 707.56564672 9.63317214 714.15086991 9.61748323 720.73626077 C9.60905881 724.48941581 9.60853319 728.24211164 9.63009469 731.99522442 C9.65314287 736.03960269 9.63745976 740.08291574 9.61803246 744.12731266 C9.63730629 745.87225762 9.63730629 745.87225762 9.65696949 747.65245399 C9.56630611 756.21415151 7.51955487 762.77802607 1.9375 769.375 C0.9784375 770.1484375 0.9784375 770.1484375 0 770.9375 C-0.9590625 771.741875 -0.9590625 771.741875 -1.9375 772.5625 C-9.06589308 777.31476206 -17.75084599 776.71528929 -26 775.9375 C-33.04439169 774.36622101 -38.01879926 768.71304474 -42 762.9375 C-44.6960021 757.03406982 -44.27956347 750.99448466 -44.25726891 744.63905716 C-44.26077498 743.38235678 -44.26428105 742.12565641 -44.26789337 740.8308742 C-44.27735626 737.33422473 -44.27434916 733.83767937 -44.26933783 730.34102476 C-44.26607391 726.54004497 -44.27435148 722.73908756 -44.28115618 718.93811488 C-44.29147059 712.27350062 -44.29429748 705.60891542 -44.29224396 698.94429398 C-44.28919771 689.03368701 -44.29750959 679.12311228 -44.30799321 669.21251157 C-44.32735142 650.48321339 -44.33296211 631.75392614 -44.33410732 613.02461913 C-44.33502584 598.56260175 -44.33913954 584.10058867 -44.34550858 569.63857269 C-44.34730362 565.47812168 -44.34908325 561.31767067 -44.35085833 557.15721965 C-44.35130043 556.12296566 -44.35174252 555.08871166 -44.35219802 554.02311664 C-44.36450925 524.92490272 -44.37239886 495.8266903 -44.37151146 466.72847366 C-44.3714803 465.63103963 -44.37144914 464.5336056 -44.37141704 463.40291599 C-44.37125082 457.84046101 -44.37105274 452.27800603 -44.37084763 446.71555105 C-44.37080774 445.61079583 -44.37076785 444.50604061 -44.37072675 443.36780796 C-44.37064587 441.13372289 -44.37056228 438.89963783 -44.37047596 436.66555276 C-44.36925033 401.90332053 -44.38426475 367.14112731 -44.41162109 332.37890625 C-44.44233163 293.33820513 -44.45955421 254.29752964 -44.45769465 215.25681567 C-44.45754538 211.09510724 -44.45744797 206.93339881 -44.45738602 202.77169037 C-44.45736271 201.74694594 -44.4573394 200.72220152 -44.45731538 199.66640423 C-44.4572538 183.16415622 -44.47003424 166.66194204 -44.48725055 150.15970409 C-44.50419119 133.57893732 -44.50619318 116.99822013 -44.4930319 100.4174495 C-44.48563227 90.56362793 -44.48933091 80.70995676 -44.50891658 70.85615107 C-44.52089303 64.27531819 -44.51835157 57.69459455 -44.50397559 51.11376673 C-44.49619279 47.36332027 -44.49471739 43.61316543 -44.51089029 39.86273924 C-44.52816529 35.82136584 -44.51447006 31.78068302 -44.49777794 27.7393074 C-44.5077143 26.57686831 -44.51765066 25.41442921 -44.52788812 24.21676469 C-44.45593918 16.00439261 -43.15005563 8.82874519 -37.875 2.3125 C-36 0.9375 -36 0.9375 -34 0.9375 C-34 0.2775 -34 -0.3825 -34 -1.0625 C-24.15706452 -8.0931682 -9.60076676 -6.60052715 0 0 Z " fill="#454BFE" transform="translate(829,127.0625)"/>
</svg>
