<?xml version="1.0" encoding="UTF-8"?>
<svg version="1.1" xmlns="http://www.w3.org/2000/svg" width="3264" height="3264">
<path d="M0 0 C1.69537088 -0.00258787 3.39074115 -0.0056022 5.08611059 -0.0090034 C9.72202757 -0.017027 14.35792904 -0.01886037 18.99385214 -0.01960087 C24.00293481 -0.02145954 29.01200958 -0.02901089 34.02108765 -0.03573608 C44.96351068 -0.04928659 55.90593004 -0.05533891 66.84836006 -0.05974674 C73.68782249 -0.06251455 80.52728352 -0.06675286 87.366745 -0.07125092 C106.32361004 -0.08343896 125.28047396 -0.09373941 144.23734283 -0.09712601 C145.44933266 -0.09734557 146.66132249 -0.09756514 147.91003928 -0.09779136 C149.12483502 -0.09800964 150.33963076 -0.09822791 151.5912385 -0.09845281 C154.05264696 -0.09889626 156.51405541 -0.09934283 158.97546387 -0.09979248 C160.19639274 -0.10001391 161.41732161 -0.10023534 162.67524832 -0.10046348 C182.44930126 -0.10440975 202.22331731 -0.12186064 221.997356 -0.145152 C242.32559052 -0.16890182 262.65380657 -0.1813295 282.98205519 -0.18249393 C294.38491292 -0.18340861 305.78772258 -0.18910879 317.19056702 -0.20731354 C326.90173348 -0.22276354 336.61283699 -0.22780616 346.32401341 -0.21957543 C351.27219223 -0.21568633 356.22024445 -0.21651288 361.16840744 -0.23063278 C365.71120766 -0.24347659 370.25378752 -0.24208354 374.79658788 -0.23004207 C376.4271403 -0.22810305 378.0577089 -0.23107881 379.68823868 -0.23988643 C388.44988852 -0.28416166 396.92307979 0.20114175 405.59218597 1.53841019 C406.40446117 1.66307456 407.21673637 1.78773893 408.05362597 1.91618101 C411.67717949 2.52670492 414.06898396 3.07713758 417.16394043 5.14044189 C420.90108196 5.72640485 424.63953251 6.0946568 428.40222168 6.48028564 C432.21463094 7.14933774 434.78885529 8.30118388 438.16394043 10.14044189 C439.77586989 10.73936981 441.40028729 11.30655226 443.03894043 11.82794189 C443.8201123 12.07930908 444.60128418 12.33067627 445.40612793 12.58966064 C445.98620605 12.77141846 446.56628418 12.95317627 447.16394043 13.14044189 C447.16394043 13.80044189 447.16394043 14.46044189 447.16394043 15.14044189 C448.81394043 15.14044189 450.46394043 15.14044189 452.16394043 15.14044189 C452.49394043 16.13044189 452.82394043 17.12044189 453.16394043 18.14044189 C454.21581543 18.24356689 455.26769043 18.34669189 456.35144043 18.45294189 C460.05022156 19.11993521 462.19380854 19.89034198 465.16394043 22.14044189 C465.16394043 22.80044189 465.16394043 23.46044189 465.16394043 24.14044189 C467.14394043 24.47044189 469.12394043 24.80044189 471.16394043 25.14044189 C471.16394043 25.80044189 471.16394043 26.46044189 471.16394043 27.14044189 C472.15394043 27.47044189 473.14394043 27.80044189 474.16394043 28.14044189 C474.16394043 28.80044189 474.16394043 29.46044189 474.16394043 30.14044189 C476.14394043 30.47044189 478.12394043 30.80044189 480.16394043 31.14044189 C480.16394043 31.80044189 480.16394043 32.46044189 480.16394043 33.14044189 C481.15394043 33.47044189 482.14394043 33.80044189 483.16394043 34.14044189 C483.16394043 34.80044189 483.16394043 35.46044189 483.16394043 36.14044189 C485.63894043 36.63544189 485.63894043 36.63544189 488.16394043 37.14044189 C488.49394043 38.13044189 488.82394043 39.12044189 489.16394043 40.14044189 C490.15394043 40.14044189 491.14394043 40.14044189 492.16394043 40.14044189 C492.16394043 41.13044189 492.16394043 42.12044189 492.16394043 43.14044189 C493.15394043 43.14044189 494.14394043 43.14044189 495.16394043 43.14044189 C495.16394043 44.13044189 495.16394043 45.12044189 495.16394043 46.14044189 C496.15394043 46.14044189 497.14394043 46.14044189 498.16394043 46.14044189 C498.16394043 47.13044189 498.16394043 48.12044189 498.16394043 49.14044189 C499.15394043 49.14044189 500.14394043 49.14044189 501.16394043 49.14044189 C502.53033384 50.78011399 503.85888233 52.45154317 505.16394043 54.14044189 C506.07144043 54.84169189 506.97894043 55.54294189 507.91394043 56.26544189 C508.65644043 56.88419189 509.39894043 57.50294189 510.16394043 58.14044189 C510.16394043 59.13044189 510.16394043 60.12044189 510.16394043 61.14044189 C511.15394043 61.47044189 512.14394043 61.80044189 513.16394043 62.14044189 C513.49394043 63.79044189 513.82394043 65.44044189 514.16394043 67.14044189 C515.15394043 67.47044189 516.14394043 67.80044189 517.16394043 68.14044189 C517.16394043 68.80044189 517.16394043 69.46044189 517.16394043 70.14044189 C517.82394043 70.14044189 518.48394043 70.14044189 519.16394043 70.14044189 C519.57644043 71.02731689 519.98894043 71.91419189 520.41394043 72.82794189 C521.98673568 76.07828699 521.98673568 76.07828699 523.97644043 78.32794189 C528.3891999 84.00148978 531.51607562 90.48563121 534.16394043 97.14044189 C534.49394043 97.47044189 534.82394043 97.80044189 535.16394043 98.14044189 C535.20457875 99.80661305 535.20666143 101.47432284 535.16394043 103.14044189 C535.82394043 103.14044189 536.48394043 103.14044189 537.16394043 103.14044189 C537.36890137 103.77852783 537.5738623 104.41661377 537.78503418 105.07403564 C538.05444824 105.90032471 538.3238623 106.72661377 538.60144043 107.57794189 C539.00169434 108.8135083 539.00169434 108.8135083 539.41003418 110.07403564 C539.98549537 112.10263778 539.98549537 112.10263778 541.16394043 113.14044189 C541.38927353 115.16843979 541.61161228 117.19719063 541.78503418 119.23028564 C542.0261627 121.37333669 542.0261627 121.37333669 544.16394043 123.14044189 C544.50769043 125.60137939 544.50769043 125.60137939 544.66394043 128.51544189 C544.8078924 132.40342858 544.8078924 132.40342858 546.16975616 135.96021822 C547.41753415 138.6965672 547.41422926 140.74555335 547.41463876 143.75058323 C547.41964579 144.90267066 547.42465283 146.05475808 547.4298116 147.24175724 C547.42512926 148.51065931 547.42044693 149.77956137 547.41562271 151.08691502 C547.41770828 152.45160223 547.42067025 153.81628833 547.42443144 155.18097195 C547.43225516 158.95147903 547.42754106 162.72188436 547.42087554 166.49238988 C547.41582113 170.58665041 547.42231439 174.68089483 547.4273622 178.7751531 C547.43460212 185.95760088 547.43435633 193.14001862 547.42926788 200.3224678 C547.42172185 211.00273419 547.42556051 221.6829751 547.4316845 232.3632413 C547.44223237 251.43476678 547.44129671 270.50627888 547.43552667 289.57780564 C547.43050208 306.26666411 547.42917911 322.95551768 547.43157196 339.64437675 C547.43180112 341.30276835 547.43180112 341.30276835 547.4320349 342.99466281 C547.43265754 347.48224778 547.43329434 351.96983275 547.43395443 356.45741772 C547.44007681 398.58160555 547.43451848 440.70578486 547.42376063 482.82997138 C547.41426828 520.28380792 547.41511873 557.73763086 547.42468262 595.19146729 C547.43538341 637.23850016 547.43964333 679.28552548 547.43345809 721.33255953 C547.43281662 725.81181395 547.43219094 730.29106837 547.43157196 734.7703228 C547.43141381 735.87328861 547.43125565 736.97625443 547.4310927 738.11264345 C547.42881432 754.79481981 547.43148468 771.47699073 547.43653107 788.15916634 C547.44223801 807.11994469 547.44084467 826.08070754 547.42996958 845.04148395 C547.42407896 855.66323902 547.42373956 866.28496054 547.43126193 876.90671477 C547.43572701 883.99056832 547.43299145 891.07439482 547.42425239 898.15824435 C547.41946834 902.20170493 547.41792262 906.24509857 547.42506436 910.28855718 C547.43148504 913.96099899 547.42883856 917.63331398 547.41870303 921.3057464 C547.41571237 923.2611862 547.42260922 925.21663331 547.4298116 927.17206213 C547.42480456 928.32164603 547.41979752 929.47122994 547.41463876 930.65564972 C547.41443548 932.14727583 547.41443548 932.14727583 547.4142281 933.6690358 C547.16394043 936.14044189 547.16394043 936.14044189 545.16394043 939.14044189 C544.78117512 941.54994521 544.78117512 941.54994521 544.66394043 944.14044189 C544.44567429 947.80731311 544.27476541 948.97420442 542.16394043 952.14044189 C541.99894043 953.31606689 541.83394043 954.49169189 541.66394043 955.70294189 C541.16394043 959.14044189 541.16394043 959.14044189 539.16394043 961.14044189 C538.67158873 963.1098487 538.18264899 965.08031886 537.72644043 967.05841064 C536.93776776 969.97759491 535.58065826 972.47701237 534.16394043 975.14044189 C533.12880271 977.46009142 532.14765671 979.79826028 531.16394043 982.14044189 C530.50394043 982.14044189 529.84394043 982.14044189 529.16394043 982.14044189 C528.83394043 984.12044189 528.50394043 986.10044189 528.16394043 988.14044189 C527.50394043 988.14044189 526.84394043 988.14044189 526.16394043 988.14044189 C525.87519043 989.06856689 525.58644043 989.99669189 525.28894043 990.95294189 C524.16394043 994.14044189 524.16394043 994.14044189 522.16394043 997.14044189 C521.50394043 997.14044189 520.84394043 997.14044189 520.16394043 997.14044189 C520.00925293 998.25419189 520.00925293 998.25419189 519.85144043 999.39044189 C519.11460246 1002.33779379 518.21594901 1003.92427263 516.16394043 1006.14044189 C515.50394043 1006.14044189 514.84394043 1006.14044189 514.16394043 1006.14044189 C513.89581543 1006.71278564 513.62769043 1007.28512939 513.35144043 1007.87481689 C512.12261407 1010.21928824 510.73871867 1012.26449127 509.16394043 1014.39044189 C508.39050293 1015.45005127 508.39050293 1015.45005127 507.60144043 1016.53106689 C507.12706543 1017.06216064 506.65269043 1017.59325439 506.16394043 1018.14044189 C505.50394043 1018.14044189 504.84394043 1018.14044189 504.16394043 1018.14044189 C504.16394043 1019.13044189 504.16394043 1020.12044189 504.16394043 1021.14044189 C503.17394043 1021.14044189 502.18394043 1021.14044189 501.16394043 1021.14044189 C501.16394043 1022.13044189 501.16394043 1023.12044189 501.16394043 1024.14044189 C500.17394043 1024.14044189 499.18394043 1024.14044189 498.16394043 1024.14044189 C497.83394043 1025.13044189 497.50394043 1026.12044189 497.16394043 1027.14044189 C496.50394043 1027.14044189 495.84394043 1027.14044189 495.16394043 1027.14044189 C494.83394043 1028.13044189 494.50394043 1029.12044189 494.16394043 1030.14044189 C493.50394043 1030.14044189 492.84394043 1030.14044189 492.16394043 1030.14044189 C491.83394043 1031.13044189 491.50394043 1032.12044189 491.16394043 1033.14044189 C489.57019043 1034.23809814 489.57019043 1034.23809814 487.66394043 1035.20294189 C484.83374975 1036.56489718 484.83374975 1036.56489718 483.16394043 1039.14044189 C482.17394043 1039.14044189 481.18394043 1039.14044189 480.16394043 1039.14044189 C479.83394043 1040.13044189 479.50394043 1041.12044189 479.16394043 1042.14044189 C477.84090326 1042.5125461 476.50656108 1042.84674363 475.16394043 1043.14044189 C474.83394043 1043.80044189 474.50394043 1044.46044189 474.16394043 1045.14044189 C473.17394043 1045.14044189 472.18394043 1045.14044189 471.16394043 1045.14044189 C470.83394043 1046.13044189 470.50394043 1047.12044189 470.16394043 1048.14044189 C468.51394043 1048.14044189 466.86394043 1048.14044189 465.16394043 1048.14044189 C464.83394043 1049.13044189 464.50394043 1050.12044189 464.16394043 1051.14044189 C462.84090326 1051.5125461 461.50656108 1051.84674363 460.16394043 1052.14044189 C459.83394043 1052.80044189 459.50394043 1053.46044189 459.16394043 1054.14044189 C457.18394043 1054.14044189 455.20394043 1054.14044189 453.16394043 1054.14044189 C452.83394043 1055.13044189 452.50394043 1056.12044189 452.16394043 1057.14044189 C450.51394043 1057.14044189 448.86394043 1057.14044189 447.16394043 1057.14044189 C446.83394043 1058.13044189 446.50394043 1059.12044189 446.16394043 1060.14044189 C444.24581543 1060.32606689 444.24581543 1060.32606689 442.28894043 1060.51544189 C438.81603107 1060.83086588 438.81603107 1060.83086588 436.16394043 1063.14044189 C433.99206543 1063.70294189 433.99206543 1063.70294189 431.41394043 1064.14044189 C428.48838508 1064.67274208 425.86249587 1065.24293305 423.03894043 1066.20294189 C420.53763836 1067.01858387 418.44372481 1067.4093026 415.85144043 1067.70294189 C412.36750377 1067.73058781 412.36750377 1067.73058781 411.16394043 1069.14044189 C402.47119724 1070.52068977 393.69504851 1070.28910277 384.91868591 1070.28761292 C383.15435807 1070.29091591 381.39003097 1070.29464239 379.62570482 1070.29875439 C374.78969582 1070.30873331 369.95369922 1070.31248455 365.11768138 1070.3151437 C359.89646754 1070.31905909 354.6752634 1070.32863665 349.45405579 1070.33735657 C336.84949765 1070.35708788 324.24493874 1070.36718371 311.64036903 1070.37608436 C305.69568111 1070.38047339 299.75099407 1070.38583866 293.80630684 1070.39107323 C274.02858509 1070.40808342 254.25086389 1070.42257523 234.47313595 1070.42982197 C229.34459876 1070.43173168 224.21606158 1070.43365203 219.08752441 1070.43560791 C217.81294503 1070.43609165 216.53836564 1070.43657539 215.22516263 1070.43707379 C194.60076808 1070.44536528 173.9764317 1070.47068825 153.35206252 1070.50318859 C132.14810786 1070.53632809 110.94418269 1070.55427701 89.74020201 1070.55746621 C77.84697172 1070.55962511 65.95382621 1070.56828241 54.06062126 1070.59392738 C43.92683414 1070.61572883 33.7931524 1070.62363869 23.65934449 1070.6139606 C18.49787212 1070.60944291 13.33661674 1070.61115298 8.17517471 1070.63072205 C-37.85110658 1070.79556863 -37.85110658 1070.79556863 -51.83605957 1066.14044189 C-52.49605957 1065.48044189 -53.15605957 1064.82044189 -53.83605957 1064.14044189 C-56.49143329 1063.57524186 -59.1275067 1063.40255991 -61.83605957 1063.14044189 C-62.33105957 1061.65544189 -62.33105957 1061.65544189 -62.83605957 1060.14044189 C-65.80605957 1060.14044189 -68.77605957 1060.14044189 -71.83605957 1060.14044189 C-72.16605957 1059.48044189 -72.49605957 1058.82044189 -72.83605957 1058.14044189 C-74.81494918 1057.41350286 -76.81560515 1056.74227938 -78.83605957 1056.14044189 C-78.83605957 1055.48044189 -78.83605957 1054.82044189 -78.83605957 1054.14044189 C-80.81605957 1054.14044189 -82.79605957 1054.14044189 -84.83605957 1054.14044189 C-85.33105957 1052.65544189 -85.33105957 1052.65544189 -85.83605957 1051.14044189 C-87.48605957 1050.81044189 -89.13605957 1050.48044189 -90.83605957 1050.14044189 C-90.83605957 1049.48044189 -90.83605957 1048.82044189 -90.83605957 1048.14044189 C-92.48605957 1048.14044189 -94.13605957 1048.14044189 -95.83605957 1048.14044189 C-96.16605957 1047.48044189 -96.49605957 1046.82044189 -96.83605957 1046.14044189 C-98.85275784 1045.00693656 -98.85275784 1045.00693656 -100.83605957 1044.14044189 C-100.83605957 1043.48044189 -100.83605957 1042.82044189 -100.83605957 1042.14044189 C-102.48605957 1041.81044189 -104.13605957 1041.48044189 -105.83605957 1041.14044189 C-105.83605957 1040.48044189 -105.83605957 1039.82044189 -105.83605957 1039.14044189 C-106.82605957 1039.14044189 -107.81605957 1039.14044189 -108.83605957 1039.14044189 C-108.83605957 1038.15044189 -108.83605957 1037.16044189 -108.83605957 1036.14044189 C-110.15605957 1036.14044189 -111.47605957 1036.14044189 -112.83605957 1036.14044189 C-113.16605957 1035.48044189 -113.49605957 1034.82044189 -113.83605957 1034.14044189 C-114.82605957 1033.81044189 -115.81605957 1033.48044189 -116.83605957 1033.14044189 C-119.02355957 1031.20294189 -119.02355957 1031.20294189 -120.83605957 1029.14044189 C-120.83605957 1028.48044189 -120.83605957 1027.82044189 -120.83605957 1027.14044189 C-121.82605957 1026.81044189 -122.81605957 1026.48044189 -123.83605957 1026.14044189 C-123.83605957 1025.48044189 -123.83605957 1024.82044189 -123.83605957 1024.14044189 C-124.82605957 1024.14044189 -125.81605957 1024.14044189 -126.83605957 1024.14044189 C-126.83605957 1023.15044189 -126.83605957 1022.16044189 -126.83605957 1021.14044189 C-127.82605957 1021.14044189 -128.81605957 1021.14044189 -129.83605957 1021.14044189 C-129.83605957 1020.15044189 -129.83605957 1019.16044189 -129.83605957 1018.14044189 C-130.82605957 1017.81044189 -131.81605957 1017.48044189 -132.83605957 1017.14044189 C-134.44152832 1015.39825439 -134.44152832 1015.39825439 -136.02355957 1013.26544189 C-136.55336426 1012.56677002 -137.08316895 1011.86809814 -137.62902832 1011.14825439 C-138.83605957 1009.14044189 -138.83605957 1009.14044189 -138.83605957 1006.14044189 C-139.82605957 1006.14044189 -140.81605957 1006.14044189 -141.83605957 1006.14044189 C-143.44152832 1004.27716064 -143.44152832 1004.27716064 -145.02355957 1001.82794189 C-145.55336426 1001.02743408 -146.08316895 1000.22692627 -146.62902832 999.40216064 C-147.83605957 997.14044189 -147.83605957 997.14044189 -147.83605957 994.14044189 C-148.82605957 993.81044189 -149.81605957 993.48044189 -150.83605957 993.14044189 C-151.33105957 990.66544189 -151.33105957 990.66544189 -151.83605957 988.14044189 C-152.49605957 988.14044189 -153.15605957 988.14044189 -153.83605957 988.14044189 C-153.83605957 986.82044189 -153.83605957 985.50044189 -153.83605957 984.14044189 C-154.49605957 984.14044189 -155.15605957 984.14044189 -155.83605957 984.14044189 C-156.16605957 982.16044189 -156.49605957 980.18044189 -156.83605957 978.14044189 C-157.49605957 978.14044189 -158.15605957 978.14044189 -158.83605957 978.14044189 C-159.12480957 977.00606689 -159.41355957 975.87169189 -159.71105957 974.70294189 C-160.08230957 973.52731689 -160.45355957 972.35169189 -160.83605957 971.14044189 C-161.49605957 970.81044189 -162.15605957 970.48044189 -162.83605957 970.14044189 C-163.25012207 968.07403564 -163.25012207 968.07403564 -163.46105957 965.57794189 C-163.57320801 964.3385083 -163.57320801 964.3385083 -163.68762207 963.07403564 C-163.76109863 962.11690674 -163.76109863 962.11690674 -163.83605957 961.14044189 C-164.49605957 961.14044189 -165.15605957 961.14044189 -165.83605957 961.14044189 C-165.83605957 958.17044189 -165.83605957 955.20044189 -165.83605957 952.14044189 C-166.82605957 951.81044189 -167.81605957 951.48044189 -168.83605957 951.14044189 C-169.03137207 949.18731689 -169.22668457 947.23419189 -169.42199707 945.28106689 C-169.71578739 943.12948907 -169.71578739 943.12948907 -170.83633859 941.42575499 C-172.1757992 938.36381378 -172.16049758 935.77373422 -172.2456578 932.43480742 C-172.26472196 931.77334006 -172.28378612 931.11187271 -172.30342798 930.43036089 C-172.36320307 928.2490283 -172.4086343 926.06767472 -172.45312309 923.88598061 C-172.49074455 922.34547356 -172.52875158 920.80497588 -172.56712656 919.26448742 C-172.91315934 904.6315164 -172.97912642 889.99834633 -172.96452712 875.36176082 C-172.96192405 871.59034816 -172.96527575 867.81893907 -172.96777046 864.04752696 C-172.97133652 857.47757879 -172.97130126 850.90763887 -172.9687233 844.33769035 C-172.9649001 834.56712548 -172.96689537 824.79656742 -172.9699316 815.02600257 C-172.97516697 797.56418464 -172.97475319 780.10237039 -172.97185269 762.64055212 C-172.96932724 747.35974945 -172.96868502 732.07894813 -172.96987534 716.79814529 C-172.96995172 715.78061616 -172.97002811 714.76308703 -172.97010681 713.71472368 C-172.97041819 709.58323403 -172.9707366 705.45174437 -172.97106657 701.32025471 C-172.97411859 662.64441343 -172.97136313 623.96857449 -172.96596967 585.29273357 C-172.96122413 551.00238509 -172.96165011 516.71204034 -172.96643066 482.42169189 C-172.97179594 443.80907275 -172.97390277 405.19645566 -172.9708184 366.5838362 C-172.97049773 362.46092645 -172.97018489 358.33801671 -172.96987534 354.21510696 C-172.96979626 353.20009731 -172.96971718 352.18508765 -172.96963571 351.13932013 C-172.96850269 335.87433678 -172.96982014 320.60935493 -172.97235489 305.3443718 C-172.97522523 287.9727668 -172.97447579 270.60116603 -172.96907414 253.22956155 C-172.96615724 243.53135619 -172.96591786 233.83316001 -172.96972032 224.13495491 C-172.97198724 217.63076401 -172.97052363 211.12658035 -172.96621555 204.62239051 C-172.96387079 200.93433439 -172.9629502 197.24629628 -172.96662153 193.55824082 C-172.97965829 179.2413193 -172.88958985 164.9284954 -172.50911559 150.61620583 C-172.47220408 149.20353863 -172.43816628 147.79079299 -172.40720413 146.37798287 C-172.36289183 144.42346948 -172.30456863 142.46928902 -172.2456578 140.51516116 C-172.19973878 138.84590146 -172.19973878 138.84590146 -172.15289211 137.14291934 C-171.83324029 134.1137249 -171.07403688 131.90436364 -169.83605957 129.14044189 C-169.48402792 127.56542621 -169.17146289 125.98107839 -168.89855957 124.39044189 C-167.96189898 119.45833847 -166.55167105 114.85197192 -164.83605957 110.14044189 C-164.58727051 109.44950439 -164.33848145 108.75856689 -164.08215332 108.04669189 C-161.45031851 100.88148717 -158.3862297 94.01877304 -154.83605957 87.26544189 C-154.49316895 86.58997314 -154.15027832 85.91450439 -153.79699707 85.21856689 C-151.18689916 80.25738842 -151.18689916 80.25738842 -147.83605957 79.14044189 C-147.83605957 77.49044189 -147.83605957 75.84044189 -147.83605957 74.14044189 C-146.35105957 73.64544189 -146.35105957 73.64544189 -144.83605957 73.14044189 C-144.83605957 72.15044189 -144.83605957 71.16044189 -144.83605957 70.14044189 C-143.46105957 68.45294189 -143.46105957 68.45294189 -141.83605957 67.14044189 C-141.17605957 67.14044189 -140.51605957 67.14044189 -139.83605957 67.14044189 C-139.17605957 65.16044189 -138.51605957 63.18044189 -137.83605957 61.14044189 C-137.17605957 61.14044189 -136.51605957 61.14044189 -135.83605957 61.14044189 C-135.83605957 60.15044189 -135.83605957 59.16044189 -135.83605957 58.14044189 C-134.84605957 58.14044189 -133.85605957 58.14044189 -132.83605957 58.14044189 C-132.83605957 57.15044189 -132.83605957 56.16044189 -132.83605957 55.14044189 C-131.84605957 55.14044189 -130.85605957 55.14044189 -129.83605957 55.14044189 C-129.83605957 54.15044189 -129.83605957 53.16044189 -129.83605957 52.14044189 C-128.84605957 52.14044189 -127.85605957 52.14044189 -126.83605957 52.14044189 C-126.83605957 51.15044189 -126.83605957 50.16044189 -126.83605957 49.14044189 C-125.84605957 49.14044189 -124.85605957 49.14044189 -123.83605957 49.14044189 C-123.83605957 48.15044189 -123.83605957 47.16044189 -123.83605957 46.14044189 C-122.84605957 46.14044189 -121.85605957 46.14044189 -120.83605957 46.14044189 C-120.83605957 45.15044189 -120.83605957 44.16044189 -120.83605957 43.14044189 C-119.84605957 43.14044189 -118.85605957 43.14044189 -117.83605957 43.14044189 C-117.50605957 42.15044189 -117.17605957 41.16044189 -116.83605957 40.14044189 C-111.464631 36.14044189 -111.464631 36.14044189 -108.83605957 36.14044189 C-108.83605957 35.48044189 -108.83605957 34.82044189 -108.83605957 34.14044189 C-103.54194192 30.14044189 -103.54194192 30.14044189 -99.83605957 30.14044189 C-99.34105957 28.65544189 -99.34105957 28.65544189 -98.83605957 27.14044189 C-95.86433731 24.37366599 -95.09415332 24.14044189 -90.83605957 24.14044189 C-90.83605957 23.48044189 -90.83605957 22.82044189 -90.83605957 22.14044189 C-86.87790998 19.8121186 -83.11551582 17.8104736 -78.83605957 16.14044189 C-77.5223631 15.43433004 -76.20997051 14.72578949 -74.89855957 14.01544189 C-71.4121473 12.22923447 -68.79982289 11.74406556 -64.83605957 12.14044189 C-64.83605957 11.48044189 -64.83605957 10.82044189 -64.83605957 10.14044189 C-57.94868716 7.22551066 -51.85865436 5.67016224 -44.36730957 5.41387939 C-41.59167353 5.31127819 -41.59167353 5.31127819 -38.83605957 3.14044189 C-36.39074707 2.76153564 -36.39074707 2.76153564 -33.71105957 2.57794189 C-30.46684982 2.59559311 -30.46684982 2.59559311 -27.83605957 1.14044189 C-18.67776083 -0.35145376 -9.2512947 -0.00568433 0 0 Z " fill="#454AFE" transform="translate(1868.8360595703125,1466.8595581054688)"/>
<path d="M0 0 C1.03799097 -0.00391093 1.03799097 -0.00391093 2.09695145 -0.00790086 C4.41496535 -0.01419551 6.73270775 -0.00624108 9.05071354 0.00165081 C10.72969779 0.00006242 12.4086814 -0.00240148 14.08766323 -0.0056656 C18.70106451 -0.01208148 23.31437808 -0.00600906 27.92777359 0.00209868 C32.90331149 0.00867419 37.87883956 0.0037275 42.8543787 0.00021648 C52.60162251 -0.0048271 62.34883241 0.00081824 72.09607201 0.01006678 C83.44427372 0.02044753 94.79246808 0.02038067 106.14067364 0.01989421 C126.38788018 0.01939346 146.63507093 0.02855831 166.88227177 0.04307842 C186.5339674 0.05716421 206.18564914 0.06424928 225.83734989 0.06358624 C227.65260945 0.0635263 227.65260945 0.0635263 229.50454091 0.06346516 C231.31664537 0.06340462 231.31664537 0.06340462 233.16535801 0.06334287 C255.52928499 0.06265306 277.89320607 0.06854318 300.25713114 0.07749609 C308.1692666 0.08051309 316.08140098 0.08157573 323.99353695 0.08202839 C333.63525301 0.08271047 343.27695911 0.08717433 352.91867094 0.0963612 C357.83895573 0.10097897 362.75922778 0.10402476 367.67951488 0.10276699 C372.18296566 0.1016716 376.68638827 0.10519259 381.18983317 0.11241551 C382.81964545 0.11422799 384.44946065 0.11435997 386.07927304 0.11264823 C388.29426589 0.11057937 390.50916675 0.11465503 392.72415161 0.12025452 C393.95461053 0.12095894 395.18506945 0.12166337 396.452815 0.12238914 C406.15185568 0.47574827 406.15185568 0.47574827 407.92499638 2.24888897 C409.31566821 2.38109484 410.71230847 2.45204023 412.10859013 2.49498272 C412.95357059 2.52785381 413.79855106 2.56072491 414.669137 2.59459209 C416.46067918 2.65565263 418.25235327 2.71296154 420.044137 2.76646709 C421.3135413 2.81770733 421.3135413 2.81770733 422.60859013 2.86998272 C423.38774784 2.89503887 424.16690556 2.92009502 424.96967411 2.94591045 C426.92499638 3.24888897 426.92499638 3.24888897 428.92499638 5.24888897 C431.29229838 5.63599278 431.29229838 5.63599278 433.92499638 5.74888897 C438.70277415 6.02666675 438.70277415 6.02666675 440.92499638 8.24888897 C442.65749638 8.49638897 442.65749638 8.49638897 444.42499638 8.74888897 C447.92499638 9.24888897 447.92499638 9.24888897 449.92499638 11.24888897 C452.2530918 11.93362292 454.58737415 12.59742048 456.92499638 13.24888897 C459.29469303 14.18115335 461.60080509 15.20537451 463.92499638 16.24888897 C463.92499638 16.90888897 463.92499638 17.56888897 463.92499638 18.24888897 C464.70874638 18.20763897 465.49249638 18.16638897 466.29999638 18.12388897 C468.92499638 18.24888897 468.92499638 18.24888897 470.92499638 20.24888897 C472.5749122 20.95599575 474.24061893 21.62832886 475.92499638 22.24888897 C475.92499638 22.90888897 475.92499638 23.56888897 475.92499638 24.24888897 C476.48702763 24.35330303 477.04905888 24.45771709 477.62812138 24.56529522 C480.34880108 25.37502132 482.31757445 26.61092235 484.67499638 28.18638897 C485.8738245 28.97336163 485.8738245 28.97336163 487.09687138 29.77623272 C487.70015263 30.26220928 488.30343388 30.74818584 488.92499638 31.24888897 C488.92499638 31.90888897 488.92499638 32.56888897 488.92499638 33.24888897 C489.91499638 33.24888897 490.90499638 33.24888897 491.92499638 33.24888897 C492.25499638 33.90888897 492.58499638 34.56888897 492.92499638 35.24888897 C494.56862771 35.97048321 496.23550024 36.64240318 497.92499638 37.24888897 C497.92499638 37.90888897 497.92499638 38.56888897 497.92499638 39.24888897 C498.91499638 39.57888897 499.90499638 39.90888897 500.92499638 40.24888897 C500.92499638 40.90888897 500.92499638 41.56888897 500.92499638 42.24888897 C501.91499638 42.57888897 502.90499638 42.90888897 503.92499638 43.24888897 C503.92499638 43.90888897 503.92499638 44.56888897 503.92499638 45.24888897 C504.91499638 45.24888897 505.90499638 45.24888897 506.92499638 45.24888897 C506.92499638 46.23888897 506.92499638 47.22888897 506.92499638 48.24888897 C507.91499638 48.24888897 508.90499638 48.24888897 509.92499638 48.24888897 C509.92499638 49.23888897 509.92499638 50.22888897 509.92499638 51.24888897 C510.91499638 51.24888897 511.90499638 51.24888897 512.92499638 51.24888897 C512.92499638 52.23888897 512.92499638 53.22888897 512.92499638 54.24888897 C513.91499638 54.57888897 514.90499638 54.90888897 515.92499638 55.24888897 C515.92499638 55.90888897 515.92499638 56.56888897 515.92499638 57.24888897 C516.91499638 57.57888897 517.90499638 57.90888897 518.92499638 58.24888897 C521.64294858 60.51384914 523.159449 63.21214748 524.92499638 66.24888897 C527.29918908 70.41181469 527.29918908 70.41181469 530.92499638 73.24888897 C531.9592275 75.23140403 532.95373557 77.23477565 533.92499638 79.24888897 C535.05800548 81.17316429 536.20412706 83.08977251 537.36249638 84.99888897 C544.92499638 97.84873007 544.92499638 97.84873007 544.92499638 103.24888897 C545.58499638 103.24888897 546.24499638 103.24888897 546.92499638 103.24888897 C546.92499638 105.22888897 546.92499638 107.20888897 546.92499638 109.24888897 C547.58499638 109.24888897 548.24499638 109.24888897 548.92499638 109.24888897 C549.04616825 109.86377178 549.16734013 110.47865459 549.29218388 111.11217022 C549.54355106 112.3245335 549.54355106 112.3245335 549.79999638 113.56138897 C549.96241825 114.36189678 550.12484013 115.16240459 550.29218388 115.98717022 C550.86978637 118.50190015 550.86978637 118.50190015 552.92499638 121.24888897 C555.19471104 128.18835151 556.28149228 135.08548175 556.61640263 142.36217022 C556.82667903 145.31233462 556.82667903 145.31233462 557.92855334 148.23523468 C559.37786971 153.22228594 559.20002772 158.19814492 559.17667866 163.35407639 C559.17958554 164.46961723 559.18249242 165.58515807 559.18548739 166.73450318 C559.19280905 170.48724213 559.1858338 174.2398187 559.17896366 177.99255657 C559.18015858 180.7043188 559.18436089 183.41607453 559.18841815 186.12783378 C559.1956432 192.03130864 559.19542136 197.93474692 559.19032383 203.83822346 C559.18276428 212.61679037 559.18662352 221.39532639 559.19274044 230.17389309 C559.20327773 245.85137774 559.20235686 261.52884609 559.19658262 277.20633228 C559.19155447 290.92521561 559.19023673 304.64409297 559.19262791 318.36297703 C559.19285706 319.72719389 559.19285706 319.72719389 559.19309085 321.11897069 C559.19371351 324.81068843 559.19435031 328.50240616 559.19501037 332.19412389 C559.20113024 366.83467884 559.19557839 401.4752234 559.18481658 436.11577674 C559.17532436 466.90388677 559.17617508 497.69198026 559.18573856 528.48009014 C559.19644336 563.05819561 559.20069705 597.6362919 559.19451404 632.2143988 C559.19387258 635.89913809 559.19324691 639.58387738 559.19262791 643.26861668 C559.19246975 644.1759165 559.1923116 645.08321633 559.19214865 646.01801009 C559.18987194 659.73025729 559.19253753 673.44249786 559.19758701 687.15474415 C559.20329848 702.74251181 559.2018909 718.33026061 559.19102553 733.91802592 C559.18514259 742.64620724 559.18478452 751.37434774 559.19231787 760.10252802 C559.19679211 765.92790187 559.19403062 771.7532429 559.18530834 777.57861187 C559.18053714 780.90079513 559.18004393 784.22283009 559.1861203 787.54502136 C559.1921599 791.11994101 559.18600632 794.69463503 559.17667866 798.26954269 C559.18136099 799.30583463 559.18604332 800.34212658 559.19086754 801.4098213 C559.16433129 806.46288272 558.83191536 810.49538388 556.92499638 815.24888897 C556.5639881 817.67967804 556.25386401 820.11841726 555.98749638 822.56138897 C555.28520704 828.45025771 554.01053748 833.71023882 551.92499638 839.24888897 C551.61562138 840.36263897 551.30624638 841.47638897 550.98749638 842.62388897 C549.53316561 847.58572335 547.72933307 852.40520842 545.92499638 857.24888897 C545.26499638 857.24888897 544.60499638 857.24888897 543.92499638 857.24888897 C543.82187138 858.11513897 543.71874638 858.98138897 543.61249638 859.87388897 C541.52369444 870.12800757 533.65001278 881.51150797 527.15155888 889.69810772 C525.99800844 891.15657754 524.95647222 892.70167521 523.92499638 894.24888897 C523.26499638 894.24888897 522.60499638 894.24888897 521.92499638 894.24888897 C521.92499638 895.23888897 521.92499638 896.22888897 521.92499638 897.24888897 C520.93499638 897.24888897 519.94499638 897.24888897 518.92499638 897.24888897 C518.92499638 898.23888897 518.92499638 899.22888897 518.92499638 900.24888897 C517.54999638 901.93638897 517.54999638 901.93638897 515.92499638 903.24888897 C515.26499638 903.24888897 514.60499638 903.24888897 513.92499638 903.24888897 C513.59499638 904.23888897 513.26499638 905.22888897 512.92499638 906.24888897 C511.93499638 906.24888897 510.94499638 906.24888897 509.92499638 906.24888897 C509.92499638 907.23888897 509.92499638 908.22888897 509.92499638 909.24888897 C508.61249638 910.93638897 508.61249638 910.93638897 506.92499638 912.24888897 C505.93499638 912.24888897 504.94499638 912.24888897 503.92499638 912.24888897 C503.92499638 913.23888897 503.92499638 914.22888897 503.92499638 915.24888897 C502.93499638 915.24888897 501.94499638 915.24888897 500.92499638 915.24888897 C500.92499638 916.23888897 500.92499638 917.22888897 500.92499638 918.24888897 C499.93499638 918.24888897 498.94499638 918.24888897 497.92499638 918.24888897 C497.59499638 919.23888897 497.26499638 920.22888897 496.92499638 921.24888897 C495.93499638 921.24888897 494.94499638 921.24888897 493.92499638 921.24888897 C493.59499638 922.23888897 493.26499638 923.22888897 492.92499638 924.24888897 C491.93499638 924.57888897 490.94499638 924.90888897 489.92499638 925.24888897 C489.59499638 925.90888897 489.26499638 926.56888897 488.92499638 927.24888897 C487.93499638 927.24888897 486.94499638 927.24888897 485.92499638 927.24888897 C485.59499638 928.23888897 485.26499638 929.22888897 484.92499638 930.24888897 C483.11249638 931.34654522 483.11249638 931.34654522 480.92499638 932.31138897 C477.77352677 933.57118973 477.77352677 933.57118973 475.92499638 936.24888897 C474.25832971 936.5822223 472.59166304 936.91555564 470.92499638 937.24888897 C470.59499638 937.90888897 470.26499638 938.56888897 469.92499638 939.24888897 C467.94499638 939.24888897 465.96499638 939.24888897 463.92499638 939.24888897 C463.59499638 940.23888897 463.26499638 941.22888897 462.92499638 942.24888897 C461.27499638 942.24888897 459.62499638 942.24888897 457.92499638 942.24888897 C457.59499638 943.23888897 457.26499638 944.22888897 456.92499638 945.24888897 C454.28499638 945.24888897 451.64499638 945.24888897 448.92499638 945.24888897 C448.59499638 946.23888897 448.26499638 947.22888897 447.92499638 948.24888897 C445.61470553 948.99148246 443.27924438 949.66032697 440.92499638 950.24888897 C440.59499638 950.57888897 440.26499638 950.90888897 439.92499638 951.24888897 C437.35294264 951.82045647 434.76715725 952.27758699 432.17499638 952.74888897 C429.96654031 953.02838654 429.96654031 953.02838654 428.92499638 954.24888897 C427.0159998 954.6236613 425.09715548 954.94884462 423.17499638 955.24888897 C418.9121327 955.90638467 418.9121327 955.90638467 414.68948936 956.77192473 C411.29297648 957.35793279 408.06295177 957.37701151 404.61498356 957.38031673 C403.52063827 957.38339568 403.52063827 957.38339568 402.404185 957.38653684 C399.95236495 957.39220441 397.50060112 957.39074988 395.04877567 957.38933086 C393.27593579 957.39191465 391.50309648 957.39492785 389.73025799 957.39833426 C384.85257149 957.40640615 379.9748997 957.40819395 375.09720731 957.40893173 C369.83864303 957.41078199 364.58008639 957.41832927 359.32152653 957.42506695 C347.81925149 957.43865286 336.31697994 957.4446756 324.81469822 957.44907761 C317.63192006 957.45183999 310.44914325 957.45607738 303.266366 957.46058178 C283.37812224 957.47277555 263.48987955 957.48307415 243.60163212 957.48645687 C242.32853758 957.48667644 241.05544304 957.486896 239.74376988 957.48712222 C237.82955822 957.48744964 237.82955822 957.48744964 235.87667561 957.48778367 C233.29073175 957.48822714 230.70478789 957.4886737 228.11884403 957.48912334 C226.83612661 957.48934477 225.55340919 957.4895662 224.23182154 957.48979434 C203.45425625 957.49374106 182.67672606 957.51119077 161.89917433 957.53448287 C140.56544776 957.55820528 119.23173879 957.57065915 97.89799881 957.57182479 C85.92068095 957.57274113 73.94340881 957.57848302 61.96610355 957.5966444 C51.76530833 957.61205748 41.56457294 957.61715876 31.36376828 957.6089063 C26.16119336 957.60500389 20.9587389 957.60590942 15.75617886 957.61996365 C10.98770476 957.63272711 6.21944134 957.63148355 1.45096743 957.61937293 C-0.26848594 957.61742016 -1.98795436 957.62047486 -3.70738661 957.6292173 C-14.74400266 957.68175226 -24.62112116 956.73908778 -35.19261265 953.20735574 C-38.08936946 952.24411197 -41.00783275 951.53874681 -43.97344112 950.82310772 C-47.43885835 949.87623721 -50.73302549 948.56180895 -54.07500362 947.24888897 C-54.07500362 946.58888897 -54.07500362 945.92888897 -54.07500362 945.24888897 C-55.01473019 945.28369366 -55.01473019 945.28369366 -55.97344112 945.31920147 C-57.19933956 945.34627178 -57.19933956 945.34627178 -58.45000362 945.37388897 C-59.262113 945.39709209 -60.07422237 945.42029522 -60.91094112 945.44420147 C-63.07500362 945.24888897 -63.07500362 945.24888897 -65.07500362 943.24888897 C-65.75562862 943.08388897 -66.43625362 942.91888897 -67.13750362 942.74888897 C-67.77687862 942.58388897 -68.41625362 942.41888897 -69.07500362 942.24888897 C-69.40500362 941.58888897 -69.73500362 940.92888897 -70.07500362 940.24888897 C-72.05389323 939.52194993 -74.0545492 938.85072646 -76.07500362 938.24888897 C-76.07500362 937.58888897 -76.07500362 936.92888897 -76.07500362 936.24888897 C-77.72500362 936.24888897 -79.37500362 936.24888897 -81.07500362 936.24888897 C-81.57000362 934.76388897 -81.57000362 934.76388897 -82.07500362 933.24888897 C-82.81750362 933.14576397 -83.56000362 933.04263897 -84.32500362 932.93638897 C-87.27235552 932.19955099 -88.85883436 931.30089755 -91.07500362 929.24888897 C-91.07500362 928.58888897 -91.07500362 927.92888897 -91.07500362 927.24888897 C-92.72500362 926.91888897 -94.37500362 926.58888897 -96.07500362 926.24888897 C-96.07500362 925.58888897 -96.07500362 924.92888897 -96.07500362 924.24888897 C-97.39500362 923.91888897 -98.71500362 923.58888897 -100.07500362 923.24888897 C-100.07500362 922.58888897 -100.07500362 921.92888897 -100.07500362 921.24888897 C-101.06500362 921.24888897 -102.05500362 921.24888897 -103.07500362 921.24888897 C-103.07500362 920.25888897 -103.07500362 919.26888897 -103.07500362 918.24888897 C-104.06500362 918.24888897 -105.05500362 918.24888897 -106.07500362 918.24888897 C-106.63187862 917.54763897 -107.18875362 916.84638897 -107.76250362 916.12388897 C-109.80091894 913.5896429 -111.2781927 912.30223513 -113.88750362 910.49888897 C-117.9091902 907.61344098 -120.55937237 904.26853628 -123.46562862 900.29576397 C-125.37918727 897.86201462 -127.65355263 896.15669884 -130.07500362 894.24888897 C-130.07500362 893.25888897 -130.07500362 892.26888897 -130.07500362 891.24888897 C-131.06500362 890.91888897 -132.05500362 890.58888897 -133.07500362 890.24888897 C-135.1503075 887.32809092 -136.07500362 885.87342166 -136.07500362 882.24888897 C-137.06500362 881.91888897 -138.05500362 881.58888897 -139.07500362 881.24888897 C-139.07500362 879.92888897 -139.07500362 878.60888897 -139.07500362 877.24888897 C-140.06500362 876.91888897 -141.05500362 876.58888897 -142.07500362 876.24888897 C-142.07500362 874.92888897 -142.07500362 873.60888897 -142.07500362 872.24888897 C-143.06500362 871.91888897 -144.05500362 871.58888897 -145.07500362 871.24888897 C-145.07500362 869.92888897 -145.07500362 868.60888897 -145.07500362 867.24888897 C-145.73500362 867.24888897 -146.39500362 867.24888897 -147.07500362 867.24888897 C-147.40500362 864.93888897 -147.73500362 862.62888897 -148.07500362 860.24888897 C-149.06500362 859.91888897 -150.05500362 859.58888897 -151.07500362 859.24888897 C-151.07500362 857.26888897 -151.07500362 855.28888897 -151.07500362 853.24888897 C-152.06500362 852.91888897 -153.05500362 852.58888897 -154.07500362 852.24888897 C-154.26062862 850.54732647 -154.26062862 850.54732647 -154.45000362 848.81138897 C-154.65625362 847.63576397 -154.86250362 846.46013897 -155.07500362 845.24888897 C-155.73500362 844.91888897 -156.39500362 844.58888897 -157.07500362 844.24888897 C-157.46965571 841.6657117 -157.58306515 839.10700616 -157.73125362 836.49888897 C-157.84469112 835.75638897 -157.95812862 835.01388897 -158.07500362 834.24888897 C-158.73500362 833.91888897 -159.39500362 833.58888897 -160.07500362 833.24888897 C-160.07500362 828.95888897 -160.07500362 824.66888897 -160.07500362 820.24888897 C-161.06500362 819.91888897 -162.05500362 819.58888897 -163.07500362 819.24888897 C-163.10926621 754.54335564 -163.1410674 689.83782124 -163.1596899 625.1322813 C-163.15996602 624.17534563 -163.16024213 623.21840995 -163.16052661 622.23247622 C-163.16651176 601.43807029 -163.17205222 580.64366427 -163.17713428 559.8492581 C-163.17962906 549.65239025 -163.18222215 539.45552241 -163.18486691 529.25865459 C-163.18525918 527.73654959 -163.18525918 527.73654959 -163.18565938 526.18369499 C-163.19418933 493.26494227 -163.20921734 460.34619641 -163.22759807 427.42744784 C-163.24644495 393.61260128 -163.25877026 359.79775851 -163.2628336 325.98290678 C-163.26340995 321.21201321 -163.26406123 316.44111965 -163.26475811 311.6702261 C-163.26489296 310.73120177 -163.2650278 309.79217744 -163.26516673 308.82469782 C-163.26753455 293.67996528 -163.27682245 278.53524443 -163.28866769 263.39051667 C-163.30041583 248.18254319 -163.30494622 232.97458135 -163.30200638 217.76660348 C-163.30047972 208.71989894 -163.30458956 199.67323685 -163.31659871 190.62653993 C-163.32406334 184.59371054 -163.3243559 178.56090915 -163.31866725 172.52807787 C-163.31562944 169.08401604 -163.3158513 165.64003485 -163.32476999 162.19598146 C-163.33269818 158.49697475 -163.32853033 154.79818209 -163.32109928 151.09917927 C-163.32635331 150.01508274 -163.33160734 148.93098621 -163.33702058 147.81403828 C-163.33252599 146.83625341 -163.3280314 145.85846854 -163.32340062 144.85105383 C-163.32371258 144.00407904 -163.32402454 143.15710425 -163.32434595 142.28446356 C-163.07500362 140.24888897 -163.07500362 140.24888897 -161.07500362 138.24888897 C-160.68617166 135.4221516 -160.68617166 135.4221516 -160.57500362 132.24888897 C-160.29722585 126.47111119 -160.29722585 126.47111119 -158.07500362 124.24888897 C-157.68789982 121.88158696 -157.68789982 121.88158696 -157.57500362 119.24888897 C-157.29722585 114.47111119 -157.29722585 114.47111119 -155.07500362 112.24888897 C-154.36594424 110.2635227 -153.70806183 108.25977975 -153.07500362 106.24888897 C-150.74012956 99.58919135 -148.04791995 93.12189571 -144.07500362 87.24888897 C-143.41500362 87.24888897 -142.75500362 87.24888897 -142.07500362 87.24888897 C-142.07500362 85.59888897 -142.07500362 83.94888897 -142.07500362 82.24888897 C-141.08500362 81.75388897 -141.08500362 81.75388897 -140.07500362 81.24888897 C-139.35340938 79.60525763 -138.68148942 77.93838511 -138.07500362 76.24888897 C-137.41500362 76.24888897 -136.75500362 76.24888897 -136.07500362 76.24888897 C-135.74500362 74.92888897 -135.41500362 73.60888897 -135.07500362 72.24888897 C-134.41500362 72.24888897 -133.75500362 72.24888897 -133.07500362 72.24888897 C-132.95125362 71.67138897 -132.82750362 71.09388897 -132.70000362 70.49888897 C-131.46883981 66.06669926 -129.55260028 63.29178605 -126.07500362 60.24888897 C-125.41500362 60.24888897 -124.75500362 60.24888897 -124.07500362 60.24888897 C-123.74500362 59.25888897 -123.41500362 58.26888897 -123.07500362 57.24888897 C-122.41500362 57.24888897 -121.75500362 57.24888897 -121.07500362 57.24888897 C-121.07500362 56.25888897 -121.07500362 55.26888897 -121.07500362 54.24888897 C-120.08500362 54.24888897 -119.09500362 54.24888897 -118.07500362 54.24888897 C-118.07500362 53.25888897 -118.07500362 52.26888897 -118.07500362 51.24888897 C-116.76250362 49.56138897 -116.76250362 49.56138897 -115.07500362 48.24888897 C-114.08500362 48.24888897 -113.09500362 48.24888897 -112.07500362 48.24888897 C-112.07500362 47.25888897 -112.07500362 46.26888897 -112.07500362 45.24888897 C-111.08500362 45.24888897 -110.09500362 45.24888897 -109.07500362 45.24888897 C-109.07500362 44.25888897 -109.07500362 43.26888897 -109.07500362 42.24888897 C-108.08500362 42.24888897 -107.09500362 42.24888897 -106.07500362 42.24888897 C-105.74500362 41.25888897 -105.41500362 40.26888897 -105.07500362 39.24888897 C-104.41500362 39.24888897 -103.75500362 39.24888897 -103.07500362 39.24888897 C-102.74500362 38.25888897 -102.41500362 37.26888897 -102.07500362 36.24888897 C-99.15420558 34.1735851 -97.69953632 33.24888897 -94.07500362 33.24888897 C-93.74500362 32.25888897 -93.41500362 31.26888897 -93.07500362 30.24888897 C-87.75784786 25.4783567 -81.70531916 21.83632918 -75.07500362 19.24888897 C-72.41632915 17.94909256 -69.7773737 16.62014173 -67.16094112 15.23717022 C-62.84577478 12.99628268 -58.77118691 11.49481515 -54.07500362 10.24888897 C-53.74500362 9.91888897 -53.41500362 9.58888897 -53.07500362 9.24888897 C-51.94062862 9.10451397 -50.80625362 8.96013897 -49.63750362 8.81138897 C-46.03441365 8.60041346 -46.03441365 8.60041346 -44.07500362 6.24888897 C-42.01640987 5.90513897 -42.01640987 5.90513897 -39.63750362 5.74888897 C-36.13690678 5.51820713 -35.13274518 5.28738334 -32.07500362 3.24888897 C-30.08550167 2.96177959 -30.08550167 2.96177959 -27.83672237 2.90513897 C-27.01623409 2.87549053 -26.19574581 2.84584209 -25.35039425 2.81529522 C-24.49639034 2.79338116 -23.64238644 2.77146709 -22.76250362 2.74888897 C-21.07867409 2.70508621 -19.3950332 2.65318025 -17.71172237 2.59263897 C-16.59350094 2.56460186 -16.59350094 2.56460186 -15.45268917 2.53599834 C-12.97176943 2.32985992 -12.97176943 2.32985992 -10.368586 1.24650019 C-6.7387624 0.14704302 -3.78886725 -0.00066941 0 0 Z " fill="#464BFE" transform="translate(1018.0750036239624,739.7511110305786)"/>
<path d="M0 0 C1.84600301 -0.00158965 3.69200543 -0.0040548 5.53800625 -0.00731641 C10.59456925 -0.0137129 15.65105184 -0.00767491 20.70760953 0.00044787 C26.16710051 0.00703831 31.6265827 0.00207346 37.08607483 -0.00143433 C47.77458937 -0.00647148 58.46307293 -0.0008408 69.15158362 0.00841597 C81.59969689 0.01880851 94.0478035 0.01872956 106.49592029 0.01824339 C129.37724531 0.01772782 152.25855665 0.02775961 175.13987591 0.04274584 C196.01976154 0.05637083 216.89963572 0.06260702 237.77952576 0.06193542 C239.12040572 0.06189501 240.46128568 0.06185465 241.80216563 0.06181435 C242.46507738 0.06179399 243.12798913 0.06177364 243.81098912 0.06175268 C269.01720781 0.06099132 294.22342075 0.06664861 319.42963769 0.07584528 C328.10631628 0.07886088 336.78299387 0.07992475 345.45967293 0.08037758 C356.03301446 0.08105993 366.60634691 0.08552763 377.17968459 0.09471039 C382.57415703 0.09932521 387.96861787 0.10237503 393.36309242 0.10111618 C398.30195343 0.10001954 403.2407888 0.10354938 408.17964446 0.1107647 C409.96549564 0.11257482 411.75134948 0.11271146 413.53720076 0.11099742 C435.57806522 0.0921866 435.57806522 0.0921866 439.88816833 2.24723816 C443.09456023 2.77425561 446.30957303 3.20823719 449.52879333 3.64958191 C452.84428348 4.23943074 455.7209768 5.10842958 458.88816833 6.24723816 C460.54149862 6.82366487 462.19517774 7.3990915 463.84910583 7.97380066 C465.65395355 8.60615606 467.45863748 9.23897911 469.26316833 9.87223816 C470.19000427 10.19708191 471.11684021 10.52192566 472.07176208 10.85661316 C474.34404032 11.65308182 476.61617124 12.44996793 478.88816833 13.24723816 C478.88816833 13.90723816 478.88816833 14.56723816 478.88816833 15.24723816 C480.86816833 15.57723816 482.84816833 15.90723816 484.88816833 16.24723816 C484.88816833 16.90723816 484.88816833 17.56723816 484.88816833 18.24723816 C486.86816833 18.57723816 488.84816833 18.90723816 490.88816833 19.24723816 C490.88816833 19.90723816 490.88816833 20.56723816 490.88816833 21.24723816 C491.81629333 21.53598816 492.74441833 21.82473816 493.70066833 22.12223816 C496.88816833 23.24723816 496.88816833 23.24723816 499.88816833 25.24723816 C499.88816833 25.90723816 499.88816833 26.56723816 499.88816833 27.24723816 C501.86816833 27.90723816 503.84816833 28.56723816 505.88816833 29.24723816 C505.88816833 29.90723816 505.88816833 30.56723816 505.88816833 31.24723816 C506.87816833 31.24723816 507.86816833 31.24723816 508.88816833 31.24723816 C508.88816833 32.23723816 508.88816833 33.22723816 508.88816833 34.24723816 C509.87816833 34.24723816 510.86816833 34.24723816 511.88816833 34.24723816 C511.88816833 34.90723816 511.88816833 35.56723816 511.88816833 36.24723816 C513.20816833 36.90723816 514.52816833 37.56723816 515.88816833 38.24723816 C515.88816833 38.90723816 515.88816833 39.56723816 515.88816833 40.24723816 C516.72348083 40.58755066 516.72348083 40.58755066 517.57566833 40.93473816 C520.54976421 42.62273852 522.60825699 44.71400333 524.88816833 47.24723816 C524.88816833 47.90723816 524.88816833 48.56723816 524.88816833 49.24723816 C525.87816833 49.57723816 526.86816833 49.90723816 527.88816833 50.24723816 C527.88816833 50.90723816 527.88816833 51.56723816 527.88816833 52.24723816 C528.87816833 52.57723816 529.86816833 52.90723816 530.88816833 53.24723816 C530.88816833 53.90723816 530.88816833 54.56723816 530.88816833 55.24723816 C531.54816833 55.24723816 532.20816833 55.24723816 532.88816833 55.24723816 C534.61473083 57.36442566 534.61473083 57.36442566 536.51316833 60.12223816 C537.14480896 61.02716003 537.77644958 61.93208191 538.42723083 62.86442566 C539.88816833 65.24723816 539.88816833 65.24723816 539.88816833 67.24723816 C540.54816833 67.24723816 541.20816833 67.24723816 541.88816833 67.24723816 C546.82228191 74.36876733 550.51716653 82.29214048 553.88816833 90.24723816 C554.2710199 91.12637878 554.65387146 92.00551941 555.04832458 92.91130066 C556.6078415 96.61165978 557.82747785 99.81481847 558.38816833 103.80973816 C558.84608532 106.95791743 559.40387276 108.39843198 560.82566833 111.12223816 C563.26493781 116.23853983 563.70748687 121.37814162 564.20433044 126.95573425 C564.26757507 127.6513446 564.3308197 128.34695496 564.39598083 129.06364441 C564.44383728 129.67667419 564.49169373 130.28970398 564.54100037 130.92131042 C564.87733165 133.49393534 564.87733165 133.49393534 565.89413619 136.90025002 C566.92216407 140.98580341 567.16848089 144.92345855 567.13985062 149.12497616 C567.1427575 149.87946009 567.14566438 150.63394401 567.14865935 151.41129109 C567.15593605 153.92984495 567.14902693 156.4481534 567.14213562 158.96670532 C567.14444097 160.79448336 567.147618 162.62226046 567.15159011 164.45003563 C567.15993653 169.46550777 567.15581349 174.48090375 567.14961767 179.49637616 C567.14509356 184.9081881 567.15207677 190.31998693 567.15757751 195.73179626 C567.16647375 206.33101283 567.16454842 216.93020108 567.15875223 227.52941876 C567.15423643 236.14376101 567.15362249 244.75809533 567.15579987 253.37243843 C567.15610633 254.59824103 567.1564128 255.82404364 567.15672855 257.08699178 C567.157368 259.57715893 567.15801643 262.06732607 567.15867373 264.55749322 C567.16437776 287.91173466 567.15781811 311.2659604 567.147073 334.62019927 C567.13813854 354.65937997 567.13968853 374.69853628 567.14891052 394.73771667 C567.15961378 418.00655008 567.16382726 441.27536972 567.157686 464.54420525 C567.1570489 467.0255442 567.15642015 469.50688316 567.15579987 471.98822212 C567.15549131 473.20909666 567.15518276 474.4299712 567.15486486 475.68784193 C567.15313801 484.29136329 567.15605285 492.89487592 567.16075897 501.49839592 C567.16636846 511.98395802 567.16484994 522.46949018 567.15419748 532.95504885 C567.14894155 538.30496513 567.14688274 543.65483148 567.15349579 549.00474739 C567.15945895 553.90300353 567.15617397 558.8011635 567.14554068 563.69941092 C567.14330822 565.47051709 567.1444395 567.24163139 567.14929226 569.01273232 C567.1703346 577.3312054 567.14954535 585.17038258 564.88816833 593.24723816 C564.56848532 595.74381025 564.27526316 598.24396515 564.01316833 600.74723816 C563.33716578 606.12843311 562.28141446 610.32979833 559.82957458 615.13395691 C558.42596984 618.28478749 557.97595912 621.51927203 557.38035583 624.89958191 C556.67858291 628.24692736 555.34316755 631.16263982 553.88816833 634.24723816 C553.3206914 635.557594 552.75808679 636.87007198 552.20066833 638.18473816 C551.55098083 639.70067566 551.55098083 639.70067566 550.88816833 641.24723816 C550.22816833 641.24723816 549.56816833 641.24723816 548.88816833 641.24723816 C548.88816833 642.89723816 548.88816833 644.54723816 548.88816833 646.24723816 C547.89816833 646.57723816 546.90816833 646.90723816 545.88816833 647.24723816 C545.81469177 647.93173035 545.74121521 648.61622253 545.66551208 649.32145691 C544.66171214 653.09957829 542.68735328 655.91997854 540.45066833 659.05973816 C540.04268005 659.65721863 539.63469177 660.2546991 539.21434021 660.87028503 C538.16291876 662.37109053 537.03110497 663.81489739 535.88816833 665.24723816 C535.22816833 665.24723816 534.56816833 665.24723816 533.88816833 665.24723816 C533.68191833 665.92786316 533.47566833 666.60848816 533.26316833 667.30973816 C531.45921807 671.16363191 528.98713383 674.3251158 525.88816833 677.24723816 C525.22816833 677.24723816 524.56816833 677.24723816 523.88816833 677.24723816 C523.55816833 678.23723816 523.22816833 679.22723816 522.88816833 680.24723816 C522.22816833 680.24723816 521.56816833 680.24723816 520.88816833 680.24723816 C520.55816833 681.23723816 520.22816833 682.22723816 519.88816833 683.24723816 C519.22816833 683.24723816 518.56816833 683.24723816 517.88816833 683.24723816 C517.55816833 684.23723816 517.22816833 685.22723816 516.88816833 686.24723816 C514.63795653 688.94749233 511.98652591 690.62060043 508.88816833 692.24723816 C507.89816833 692.24723816 506.90816833 692.24723816 505.88816833 692.24723816 C505.88816833 693.23723816 505.88816833 694.22723816 505.88816833 695.24723816 C504.89816833 695.57723816 503.90816833 695.90723816 502.88816833 696.24723816 C502.55816833 696.90723816 502.22816833 697.56723816 501.88816833 698.24723816 C500.23816833 698.24723816 498.58816833 698.24723816 496.88816833 698.24723816 C496.88816833 699.23723816 496.88816833 700.22723816 496.88816833 701.24723816 C495.56816833 701.24723816 494.24816833 701.24723816 492.88816833 701.24723816 C492.55816833 702.23723816 492.22816833 703.22723816 491.88816833 704.24723816 C490.56816833 704.24723816 489.24816833 704.24723816 487.88816833 704.24723816 C487.55816833 705.23723816 487.22816833 706.22723816 486.88816833 707.24723816 C486.08379333 707.37098816 485.27941833 707.49473816 484.45066833 707.62223816 C483.60504333 707.82848816 482.75941833 708.03473816 481.88816833 708.24723816 C481.55816833 708.90723816 481.22816833 709.56723816 480.88816833 710.24723816 C479.22150167 710.58057149 477.554835 710.91390483 475.88816833 711.24723816 C475.55816833 711.90723816 475.22816833 712.56723816 474.88816833 713.24723816 C471.91816833 713.24723816 468.94816833 713.24723816 465.88816833 713.24723816 C465.55816833 714.23723816 465.22816833 715.22723816 464.88816833 716.24723816 C461.91816833 716.24723816 458.94816833 716.24723816 455.88816833 716.24723816 C455.55816833 717.23723816 455.22816833 718.22723816 454.88816833 719.24723816 C453.7447699 719.29622253 452.60137146 719.34520691 451.42332458 719.39567566 C449.9324136 719.47069005 448.44152942 719.54623844 446.95066833 719.62223816 C446.19592224 719.65317566 445.44117615 719.68411316 444.66355896 719.71598816 C442.73309439 719.81986966 440.80874753 720.0261943 438.88816833 720.24723816 C438.55816833 720.90723816 438.22816833 721.56723816 437.88816833 722.24723816 C417.19849036 723.41126301 396.53243927 723.39173285 375.81783473 723.37796283 C370.71146636 723.37567398 365.60510122 723.37920543 360.49873352 723.38194275 C350.52868748 723.38636226 340.55864902 723.38544116 330.5886027 723.38253011 C322.47913404 723.38026135 314.36966748 723.3799699 306.26019859 723.38105392 C305.10108645 723.38120716 303.94197431 723.38136039 302.74773755 723.38151827 C300.39223773 723.38183803 298.0367379 723.38216224 295.68123808 723.38249086 C273.65519072 723.38533436 251.62914753 723.3820762 229.60310086 723.37669049 C210.7436128 723.3722217 191.88413089 723.3730012 173.02464294 723.37760925 C151.06669854 723.38297194 129.10875778 723.38506164 107.1508128 723.38199699 C104.8054388 723.38167847 102.46006479 723.3813641 100.11469078 723.38105392 C98.96103502 723.38089965 97.80737925 723.38074537 96.61876423 723.38058642 C88.52664751 723.37972648 80.43453312 723.38117281 72.34241676 723.38353348 C62.47024104 723.38635044 52.59807325 723.38555334 42.72589842 723.38025273 C37.69843908 723.37764148 32.67099293 723.37656654 27.64353371 723.37990189 C-7.03803214 723.40072688 -7.03803214 723.40072688 -19.9649353 722.864151 C-20.78675031 722.83379418 -21.60856532 722.80343737 -22.45528382 722.77216065 C-26.15149643 722.578167 -27.96199376 722.34713009 -31.11183167 720.24723816 C-33.49860243 719.95271231 -35.8980926 719.75441646 -38.29933167 719.62223816 C-39.57163635 719.54747253 -40.84394104 719.47270691 -42.15480042 719.39567566 C-43.13062073 719.34669128 -44.10644104 719.29770691 -45.11183167 719.24723816 C-45.60683167 717.76223816 -45.60683167 717.76223816 -46.11183167 716.24723816 C-48.02995667 716.30911316 -48.02995667 716.30911316 -49.98683167 716.37223816 C-52.16651917 716.44255066 -52.16651917 716.44255066 -54.11183167 716.24723816 C-54.77183167 715.58723816 -55.43183167 714.92723816 -56.11183167 714.24723816 C-57.26683167 714.08223816 -58.42183167 713.91723816 -59.61183167 713.74723816 C-63.11183167 713.24723816 -63.11183167 713.24723816 -65.11183167 711.24723816 C-67.09539649 710.53315482 -69.09498604 709.86106074 -71.11183167 709.24723816 C-71.11183167 708.58723816 -71.11183167 707.92723816 -71.11183167 707.24723816 C-71.79245667 707.35036316 -72.47308167 707.45348816 -73.17433167 707.55973816 C-76.64992425 707.18999427 -78.40985999 705.79525712 -81.13136292 703.69255066 C-84.57453146 701.17978466 -88.35586022 699.24871954 -92.11183167 697.24723816 C-92.11183167 696.58723816 -92.11183167 695.92723816 -92.11183167 695.24723816 C-93.10183167 695.24723816 -94.09183167 695.24723816 -95.11183167 695.24723816 C-95.11183167 694.25723816 -95.11183167 693.26723816 -95.11183167 692.24723816 C-95.85433167 692.14411316 -96.59683167 692.04098816 -97.36183167 691.93473816 C-100.30918356 691.19790018 -101.8956624 690.29924674 -104.11183167 688.24723816 C-104.11183167 687.58723816 -104.11183167 686.92723816 -104.11183167 686.24723816 C-105.10183167 685.91723816 -106.09183167 685.58723816 -107.11183167 685.24723816 C-107.11183167 684.58723816 -107.11183167 683.92723816 -107.11183167 683.24723816 C-108.10183167 683.24723816 -109.09183167 683.24723816 -110.11183167 683.24723816 C-110.11183167 682.25723816 -110.11183167 681.26723816 -110.11183167 680.24723816 C-111.10183167 680.24723816 -112.09183167 680.24723816 -113.11183167 680.24723816 C-113.11183167 679.25723816 -113.11183167 678.26723816 -113.11183167 677.24723816 C-114.10183167 677.24723816 -115.09183167 677.24723816 -116.11183167 677.24723816 C-116.11183167 676.25723816 -116.11183167 675.26723816 -116.11183167 674.24723816 C-117.10183167 674.24723816 -118.09183167 674.24723816 -119.11183167 674.24723816 C-119.11183167 673.25723816 -119.11183167 672.26723816 -119.11183167 671.24723816 C-120.10183167 670.91723816 -121.09183167 670.58723816 -122.11183167 670.24723816 C-123.20948792 668.65348816 -123.20948792 668.65348816 -124.17433167 666.74723816 C-125.53628695 663.91704748 -125.53628695 663.91704748 -128.11183167 662.24723816 C-128.11183167 661.25723816 -128.11183167 660.26723816 -128.11183167 659.24723816 C-129.10183167 658.91723816 -130.09183167 658.58723816 -131.11183167 658.24723816 C-132.35792542 656.39176941 -132.35792542 656.39176941 -133.54933167 654.05973816 C-135.02851223 651.24394865 -136.49265199 648.69232855 -138.29933167 646.05973816 C-140.17502539 643.14917894 -141.08335086 640.53837673 -142.11183167 637.24723816 C-143.72249572 633.49261144 -143.72249572 633.49261144 -146.11183167 630.24723816 C-146.25620667 629.11286316 -146.40058167 627.97848816 -146.54933167 626.80973816 C-146.76030717 623.20664819 -146.76030717 623.20664819 -149.11183167 621.24723816 C-149.48650549 619.20356276 -149.61579228 617.19337382 -149.76808167 615.12223816 C-149.97218532 613.0082153 -149.97218532 613.0082153 -152.11183167 611.24723816 C-152.49291345 608.68359708 -152.61769536 606.14638263 -152.76808167 603.55973816 C-152.90561846 601.05648233 -152.90561846 601.05648233 -155.11183167 599.24723816 C-155.30892227 596.67445075 -155.37955316 594.20931858 -155.36351395 591.6353302 C-155.36642083 590.83670933 -155.36932771 590.03808845 -155.37232268 589.21526694 C-155.37968362 586.51051738 -155.37265117 583.80599037 -155.36579895 581.10124207 C-155.36810098 579.15403438 -155.37127576 577.20682756 -155.37525344 575.25962257 C-155.38364554 569.88643627 -155.37945625 564.5133205 -155.373281 559.14013386 C-155.36877547 553.35411398 -155.37573079 547.56810665 -155.38124084 541.78208923 C-155.39015688 530.43843235 -155.38820303 519.09480187 -155.38241556 507.75114393 C-155.37790774 498.53591157 -155.37728234 489.32068664 -155.3794632 480.10545349 C-155.37976966 478.79633141 -155.38007613 477.48720933 -155.38039188 476.13841689 C-155.3810313 473.47936741 -155.38167973 470.82031794 -155.38233706 468.16126847 C-155.38808509 443.91100549 -155.38212136 419.66075589 -155.37165187 395.41049519 C-155.36216013 373.25645908 -155.36300936 351.10244595 -155.37257385 328.94841003 C-155.38327503 304.07814616 -155.38749745 279.20789518 -155.38134933 254.33762932 C-155.38071219 251.68809382 -155.38008345 249.03855833 -155.3794632 246.38902283 C-155.37915464 245.08523418 -155.37884609 243.78144553 -155.37852819 242.43814814 C-155.3767978 233.22877674 -155.37972374 224.01941347 -155.3844223 214.81004333 C-155.39001841 203.59437616 -155.38854155 192.378737 -155.37786081 181.16307306 C-155.37258692 175.43534204 -155.37057641 169.70765779 -155.37715912 163.97992706 C-155.38308536 158.74440612 -155.37989893 153.50897566 -155.36920401 148.27346301 C-155.36695577 146.37175103 -155.3681378 144.47003153 -155.37295559 142.56832433 C-155.37897043 139.99848702 -155.37286778 137.42896641 -155.36351395 134.85914612 C-155.36819628 134.10772079 -155.37287861 133.35629547 -155.37770283 132.58209968 C-155.34013241 127.47553891 -155.34013241 127.47553891 -153.11183167 125.24723816 C-152.7229997 122.42050079 -152.7229997 122.42050079 -152.61183167 119.24723816 C-152.33405389 113.46946038 -152.33405389 113.46946038 -150.11183167 111.24723816 C-149.72734114 109.33979 -149.72734114 109.33979 -149.61183167 107.24723816 C-149.33405389 103.46946038 -149.33405389 103.46946038 -147.11183167 101.24723816 C-146.72780044 99.30572454 -146.72780044 99.30572454 -146.61183167 97.18473816 C-146.44683167 95.88536316 -146.28183167 94.58598816 -146.11183167 93.24723816 C-145.12183167 92.75223816 -145.12183167 92.75223816 -144.11183167 92.24723816 C-143.38489263 90.26834855 -142.71366915 88.26769258 -142.11183167 86.24723816 C-141.45183167 86.24723816 -140.79183167 86.24723816 -140.11183167 86.24723816 C-140.11183167 84.59723816 -140.11183167 82.94723816 -140.11183167 81.24723816 C-138.62683167 80.75223816 -138.62683167 80.75223816 -137.11183167 80.24723816 C-137.11183167 78.92723816 -137.11183167 77.60723816 -137.11183167 76.24723816 C-136.12183167 75.75223816 -136.12183167 75.75223816 -135.11183167 75.24723816 C-134.39023742 73.60360682 -133.71831746 71.9367343 -133.11183167 70.24723816 C-132.45183167 70.24723816 -131.79183167 70.24723816 -131.11183167 70.24723816 C-131.00870667 69.69036316 -130.90558167 69.13348816 -130.79933167 68.55973816 C-129.97004758 65.77032806 -128.76884111 63.63333176 -127.11183167 61.24723816 C-126.45183167 61.24723816 -125.79183167 61.24723816 -125.11183167 61.24723816 C-125.11183167 60.25723816 -125.11183167 59.26723816 -125.11183167 58.24723816 C-124.12183167 57.75223816 -124.12183167 57.75223816 -123.11183167 57.24723816 C-121.97832633 55.23053989 -121.97832633 55.23053989 -121.11183167 53.24723816 C-120.45183167 53.24723816 -119.79183167 53.24723816 -119.11183167 53.24723816 C-119.11183167 52.25723816 -119.11183167 51.26723816 -119.11183167 50.24723816 C-117.23683167 48.05973816 -117.23683167 48.05973816 -115.11183167 46.24723816 C-114.45183167 46.24723816 -113.79183167 46.24723816 -113.11183167 46.24723816 C-112.78183167 45.25723816 -112.45183167 44.26723816 -112.11183167 43.24723816 C-111.45183167 43.24723816 -110.79183167 43.24723816 -110.11183167 43.24723816 C-109.78183167 42.25723816 -109.45183167 41.26723816 -109.11183167 40.24723816 C-107.11573792 38.42301941 -107.11573792 38.42301941 -104.67433167 36.55973816 C-103.87124573 35.93712097 -103.06815979 35.31450378 -102.24073792 34.67301941 C-100.11183167 33.24723816 -100.11183167 33.24723816 -98.11183167 33.24723816 C-98.11183167 32.58723816 -98.11183167 31.92723816 -98.11183167 31.24723816 C-97.12183167 31.24723816 -96.13183167 31.24723816 -95.11183167 31.24723816 C-94.61683167 29.76223816 -94.61683167 29.76223816 -94.11183167 28.24723816 C-88.74040309 24.24723816 -88.74040309 24.24723816 -86.11183167 24.24723816 C-86.11183167 23.58723816 -86.11183167 22.92723816 -86.11183167 22.24723816 C-84.13183167 21.91723816 -82.15183167 21.58723816 -80.11183167 21.24723816 C-80.11183167 20.58723816 -80.11183167 19.92723816 -80.11183167 19.24723816 C-70.38629838 13.96230207 -60.64330481 10.12857267 -50.08253479 6.86100769 C-48.41418673 6.34140573 -46.75414091 5.7952608 -45.09620667 5.24333191 C-40.28097082 3.67610892 -35.76510541 2.87309162 -30.71491045 2.51458293 C-28.3481519 2.27150903 -26.23238173 1.81597422 -23.93132114 1.23534679 C-16.04943513 -0.37026959 -8.00605483 -0.02498024 0 0 Z " fill="#454AFE" transform="translate(1010.1118316650391,1807.7527618408203)"/>
<path d="M0 0 C1.16420623 -0.00436032 1.16420623 -0.00436032 2.35193178 -0.00880873 C4.9741798 -0.01615555 7.59619724 -0.00914371 10.21844387 -0.002285 C12.10876744 -0.00458758 13.99909012 -0.00776274 15.88941091 -0.01173949 C21.10071659 -0.02012392 26.31194945 -0.01594574 31.52325547 -0.00976706 C37.13679549 -0.00525846 42.75032263 -0.01221836 48.36386013 -0.0177269 C59.3671495 -0.02663945 70.37041166 -0.02469067 81.37370212 -0.01890162 C90.3124041 -0.01439267 99.25109843 -0.01376889 108.18980122 -0.01594925 C109.45993275 -0.01625572 110.73006428 -0.01656218 112.03868465 -0.01687793 C114.61857459 -0.01751736 117.19846452 -0.01816578 119.77835446 -0.01882312 C143.30229341 -0.02436893 166.82621404 -0.01860899 190.35014971 -0.00813792 C211.8397386 0.00135484 233.32930379 0.00050349 254.81889248 -0.00905991 C278.94607529 -0.01976113 303.07324192 -0.02398357 327.20042795 -0.01783538 C329.77074841 -0.01719825 332.34106888 -0.01656951 334.91138935 -0.01594925 C336.17618547 -0.0156407 337.44098158 -0.01533215 338.74410485 -0.01501425 C347.67746993 -0.01328395 356.61082663 -0.01620957 365.54419041 -0.02090836 C376.42313388 -0.02650447 387.30204847 -0.02502756 398.18098862 -0.01434687 C403.73657943 -0.00907315 409.29212201 -0.00706219 414.84771252 -0.01364517 C419.92590863 -0.01957169 425.00401147 -0.01638453 430.08219903 -0.00569007 C431.92668093 -0.00344196 433.77117059 -0.00462356 435.61564756 -0.00944164 C438.10828501 -0.01545716 440.60059603 -0.00935317 443.09321594 0 C443.82189458 -0.00468233 444.55057323 -0.00936466 445.30133304 -0.01418889 C450.25538661 0.02338149 450.25538661 0.02338149 452.4836874 2.25168228 C454.87438893 2.58976726 454.87438893 2.58976726 457.6399374 2.59543228 C459.17327724 2.63990494 459.17327724 2.63990494 460.73759365 2.68527603 C461.80880459 2.70719009 462.88001553 2.72910416 463.9836874 2.75168228 C466.09846959 2.79494497 468.21310187 2.84660855 470.3274374 2.90793228 C471.26780849 2.92662369 472.20817959 2.94531509 473.17704678 2.96457291 C475.4836874 3.25168228 475.4836874 3.25168228 477.4836874 5.25168228 C479.85098941 5.63878609 479.85098941 5.63878609 482.4836874 5.75168228 C487.26146518 6.02946006 487.26146518 6.02946006 489.4836874 8.25168228 C491.13770426 8.74788734 492.794169 9.23799323 494.46415615 9.67746353 C497.8864237 10.65052606 501.16596471 11.97115773 504.4836874 13.25168228 C504.4836874 13.91168228 504.4836874 14.57168228 504.4836874 15.25168228 C505.1849374 15.35480728 505.8861874 15.45793228 506.6086874 15.56418228 C513.29748956 17.16367845 519.89409888 21.28594655 525.4836874 25.25168228 C525.4836874 25.91168228 525.4836874 26.57168228 525.4836874 27.25168228 C526.4736874 27.25168228 527.4636874 27.25168228 528.4836874 27.25168228 C528.4836874 28.24168228 528.4836874 29.23168228 528.4836874 30.25168228 C529.4736874 30.25168228 530.4636874 30.25168228 531.4836874 30.25168228 C532.50777308 31.22700198 533.50203146 32.23366872 534.4836874 33.25168228 C536.0614999 34.27261978 536.0614999 34.27261978 537.6711874 35.31418228 C538.5993124 35.95355728 539.5274374 36.59293228 540.4836874 37.25168228 C540.4836874 37.91168228 540.4836874 38.57168228 540.4836874 39.25168228 C541.4736874 39.58168228 542.4636874 39.91168228 543.4836874 40.25168228 C543.4836874 40.91168228 543.4836874 41.57168228 543.4836874 42.25168228 C544.4736874 42.58168228 545.4636874 42.91168228 546.4836874 43.25168228 C550.4836874 48.62311085 550.4836874 48.62311085 550.4836874 51.25168228 C551.4736874 51.58168228 552.4636874 51.91168228 553.4836874 52.25168228 C553.4836874 52.91168228 553.4836874 53.57168228 553.4836874 54.25168228 C554.1436874 54.25168228 554.8036874 54.25168228 555.4836874 54.25168228 C565.4836874 66.44445337 565.4836874 66.44445337 565.4836874 73.25168228 C566.1436874 73.25168228 566.8036874 73.25168228 567.4836874 73.25168228 C567.8136874 75.23168228 568.1436874 77.21168228 568.4836874 79.25168228 C569.1436874 79.25168228 569.8036874 79.25168228 570.4836874 79.25168228 C572.68188262 83.66852105 574.62680861 87.73401361 575.1086874 92.68918228 C575.11087203 96.2983324 575.11087203 96.2983324 577.4836874 98.25168228 C577.8274374 100.27511978 577.8274374 100.27511978 577.9836874 102.62668228 C578.18950236 105.9601792 578.18950236 105.9601792 579.48944163 108.97407621 C580.8384035 112.06426159 580.73446685 114.61263544 580.73536968 117.9824419 C580.73827656 118.66150796 580.74118345 119.34057403 580.74417841 120.04021785 C580.75150424 122.32625451 580.74452314 124.61202493 580.73765469 126.89805984 C580.73995809 128.54929553 580.74313381 130.2005302 580.74710917 131.85176271 C580.75548221 136.39759074 580.75132055 140.94333513 580.74513674 145.48916352 C580.74062352 150.38831605 580.74759035 155.2874539 580.75309658 160.18660355 C580.76200414 169.78705883 580.76006257 179.3874829 580.7542713 188.98793942 C580.74976043 196.78768837 580.74913941 204.58742855 580.75131893 212.38717842 C580.7516254 213.49591479 580.75193186 214.60465116 580.75224762 215.7469856 C580.75288705 217.99912227 580.75353547 220.25125894 580.7541928 222.50339561 C580.75990002 243.63654749 580.75333192 264.76968203 580.74259207 285.90283107 C580.73365497 304.05078039 580.73520915 322.19870413 580.74442959 340.34665298 C580.75512318 361.4040783 580.75935196 382.46148842 580.75320506 403.51891607 C580.75256794 405.76261135 580.7519392 408.00630663 580.75131893 410.25000191 C580.75101038 411.35404393 580.75070183 412.45808595 580.75038393 413.59558379 C580.74865434 421.38985423 580.75157773 429.18411506 580.75627804 436.97838402 C580.76187671 446.47131745 580.7603918 455.9642178 580.74971655 465.45714743 C580.74444633 470.30402818 580.74242599 475.15085368 580.74901485 479.99773407 C580.75494853 484.42953313 580.7517422 488.86122541 580.74105975 493.2930147 C580.73881472 494.90128135 580.73998651 496.50955691 580.74481133 498.11781789 C580.75084283 500.2942637 580.7447063 502.47033781 580.73536968 504.6467638 C580.73504498 505.85856141 580.73472027 507.07035901 580.73438573 508.31887776 C580.4836874 511.25168228 580.4836874 511.25168228 578.4836874 514.25168228 C578.10485879 516.23563116 578.10485879 516.23563116 577.9836874 518.31418228 C577.4836874 522.25168228 577.4836874 522.25168228 575.4836874 524.25168228 C574.80428273 526.67883434 574.80428273 526.67883434 574.3586874 529.37668228 C574.19110928 530.28676041 574.02353115 531.19683853 573.8508749 532.13449478 C573.72970303 532.83316666 573.60853115 533.53183853 573.4836874 534.25168228 C572.8236874 534.25168228 572.1636874 534.25168228 571.4836874 534.25168228 C571.4836874 536.23168228 571.4836874 538.21168228 571.4836874 540.25168228 C570.4936874 540.58168228 569.5036874 540.91168228 568.4836874 541.25168228 C568.1536874 543.23168228 567.8236874 545.21168228 567.4836874 547.25168228 C566.8236874 547.25168228 566.1636874 547.25168228 565.4836874 547.25168228 C565.37927334 547.96711197 565.27485928 548.68254166 565.16728115 549.41965103 C564.40846473 552.56331905 563.21875035 554.80384001 561.5461874 557.56418228 C561.02153896 558.44719009 560.49689053 559.33019791 559.95634365 560.23996353 C559.47036709 560.90383072 558.98439053 561.56769791 558.4836874 562.25168228 C557.8236874 562.25168228 557.1636874 562.25168228 556.4836874 562.25168228 C556.2052499 562.82402603 555.9268124 563.39636978 555.6399374 563.98605728 C554.50094948 566.21785794 553.28432358 568.36039102 551.9836874 570.50168228 C551.5608749 571.20808853 551.1380624 571.91449478 550.7024374 572.64230728 C550.3002499 573.17340103 549.8980624 573.70449478 549.4836874 574.25168228 C548.8236874 574.25168228 548.1636874 574.25168228 547.4836874 574.25168228 C547.1536874 575.24168228 546.8236874 576.23168228 546.4836874 577.25168228 C545.8236874 577.25168228 545.1636874 577.25168228 544.4836874 577.25168228 C544.1536874 578.24168228 543.8236874 579.23168228 543.4836874 580.25168228 C542.1086874 581.93918228 542.1086874 581.93918228 540.4836874 583.25168228 C539.4936874 583.25168228 538.5036874 583.25168228 537.4836874 583.25168228 C537.4836874 584.24168228 537.4836874 585.23168228 537.4836874 586.25168228 C536.4936874 586.25168228 535.5036874 586.25168228 534.4836874 586.25168228 C534.4836874 587.24168228 534.4836874 588.23168228 534.4836874 589.25168228 C533.95259365 589.48242447 533.4214999 589.71316666 532.8743124 589.95090103 C528.19060209 592.11327094 525.62596341 594.06198093 522.4836874 598.25168228 C521.4936874 598.25168228 520.5036874 598.25168228 519.4836874 598.25168228 C519.4836874 598.91168228 519.4836874 599.57168228 519.4836874 600.25168228 C518.2874374 600.68480728 517.0911874 601.11793228 515.8586874 601.56418228 C512.26747188 602.90852131 508.90072146 604.50681383 505.4836874 606.25168228 C503.1638936 607.28270175 500.82938825 608.28104745 498.4836874 609.25168228 C497.87782803 609.51078384 497.27196865 609.76988541 496.6477499 610.03683853 C491.81041038 612.0013907 487.0622509 612.96007556 481.90165615 613.72433853 C479.23975706 614.15093448 479.23975706 614.15093448 476.4836874 616.25168228 C473.62821865 616.59543228 473.62821865 616.59543228 470.2961874 616.75168228 C466.57767741 616.92812404 463.3854542 617.27837561 459.78180271 618.2576111 C455.53032512 619.34360492 451.56544263 619.53034359 447.19431114 619.50057125 C446.3953303 619.50317854 445.59634947 619.50578582 444.77315709 619.50847211 C442.10325723 619.51475459 439.43359417 619.50681982 436.76370144 619.49892044 C434.82725359 619.50050921 432.8908063 619.50297349 430.95436054 619.50623685 C425.63858447 619.51264682 420.32288463 619.50658488 415.00711358 619.49847257 C409.27223126 619.49189259 403.53735742 619.4968447 397.80247402 619.50035477 C386.57025531 619.50539628 375.33806604 619.49975577 364.10585099 619.49050447 C351.02900901 619.48012093 337.9521734 619.48019064 324.87532807 619.48067705 C300.8406848 619.48119282 276.80605633 619.47115576 252.77141826 619.45617461 C230.83118608 619.44254932 208.89096479 619.4363134 186.95072842 619.43698502 C185.54179779 619.43702543 184.13286717 619.43706579 182.72393655 619.4371061 C182.02738724 619.43712645 181.33083793 619.4371468 180.61318106 619.43716776 C177.10683056 619.43726856 173.60048006 619.43735914 170.09412956 619.43743801 C169.40237724 619.43745472 168.71062491 619.43747144 167.99791039 619.43748866 C145.72908237 619.4379322 123.46025661 619.43081251 101.19143013 619.42307517 C92.07300776 619.42005751 82.95458633 619.41899545 73.83616352 619.41854286 C62.7269247 619.41786104 51.61769453 619.41340066 40.50845938 619.40421005 C34.83881255 619.3995901 29.16917678 619.3965473 23.49952793 619.39780426 C18.31150197 619.39889869 13.1235005 619.39538459 7.93547965 619.38815574 C6.05673808 619.38634147 4.17799399 619.38621303 2.29925232 619.38792302 C-0.25145336 619.38998789 -2.80207878 619.3859234 -5.35277748 619.38031673 C-6.45042069 619.38339971 -6.45042069 619.38339971 -7.5702385 619.38654497 C-19.42916096 619.33883392 -19.42916096 619.33883392 -21.5163126 617.25168228 C-23.82526529 617.04151212 -26.13905228 616.88328287 -28.4538126 616.75168228 C-35.29587632 616.36190042 -35.29587632 616.36190042 -37.5163126 615.25168228 C-37.5163126 614.59168228 -37.5163126 613.93168228 -37.5163126 613.25168228 C-38.56432041 613.26908463 -38.56432041 613.26908463 -39.6335001 613.28683853 C-40.99861729 613.30037369 -40.99861729 613.30037369 -42.3913126 613.31418228 C-43.74869541 613.33158463 -43.74869541 613.33158463 -45.1335001 613.34933853 C-47.5163126 613.25168228 -47.5163126 613.25168228 -49.5163126 612.25168228 C-49.5163126 611.59168228 -49.5163126 610.93168228 -49.5163126 610.25168228 C-51.8263126 610.25168228 -54.1363126 610.25168228 -56.5163126 610.25168228 C-57.0113126 608.76668228 -57.0113126 608.76668228 -57.5163126 607.25168228 C-58.9394376 607.28261978 -58.9394376 607.28261978 -60.3913126 607.31418228 C-63.5163126 607.25168228 -63.5163126 607.25168228 -65.5163126 606.25168228 C-65.5163126 605.59168228 -65.5163126 604.93168228 -65.5163126 604.25168228 C-66.1969376 604.14855728 -66.8775626 604.04543228 -67.5788126 603.93918228 C-71.11811698 603.11083445 -74.210566 601.75429437 -77.5163126 600.25168228 C-78.2175626 599.96293228 -78.9188126 599.67418228 -79.6413126 599.37668228 C-82.35172314 597.75043596 -84.31792937 595.50643431 -86.5163126 593.25168228 C-87.5063126 592.59168228 -88.4963126 591.93168228 -89.5163126 591.25168228 C-89.5163126 590.59168228 -89.5163126 589.93168228 -89.5163126 589.25168228 C-90.8363126 588.92168228 -92.1563126 588.59168228 -93.5163126 588.25168228 C-93.5163126 587.59168228 -93.5163126 586.93168228 -93.5163126 586.25168228 C-94.5063126 586.25168228 -95.4963126 586.25168228 -96.5163126 586.25168228 C-98.2038126 584.93918228 -98.2038126 584.93918228 -99.5163126 583.25168228 C-99.5163126 582.26168228 -99.5163126 581.27168228 -99.5163126 580.25168228 C-100.5063126 580.25168228 -101.4963126 580.25168228 -102.5163126 580.25168228 C-104.2038126 578.93918228 -104.2038126 578.93918228 -105.5163126 577.25168228 C-105.5163126 576.26168228 -105.5163126 575.27168228 -105.5163126 574.25168228 C-106.5063126 573.92168228 -107.4963126 573.59168228 -108.5163126 573.25168228 C-108.5163126 572.59168228 -108.5163126 571.93168228 -108.5163126 571.25168228 C-109.5063126 570.92168228 -110.4963126 570.59168228 -111.5163126 570.25168228 C-111.5163126 569.26168228 -111.5163126 568.27168228 -111.5163126 567.25168228 C-112.1763126 567.25168228 -112.8363126 567.25168228 -113.5163126 567.25168228 C-113.8050626 566.61230728 -114.0938126 565.97293228 -114.3913126 565.31418228 C-115.34454711 563.09962149 -115.34454711 563.09962149 -117.5163126 562.25168228 C-117.5163126 561.26168228 -117.5163126 560.27168228 -117.5163126 559.25168228 C-118.5063126 558.92168228 -119.4963126 558.59168228 -120.5163126 558.25168228 C-121.5788126 556.00168228 -121.5788126 556.00168228 -122.5163126 553.25168228 C-123.63659124 549.49645322 -123.63659124 549.49645322 -126.5163126 547.25168228 C-126.84964593 545.58501561 -127.18297927 543.91834895 -127.5163126 542.25168228 C-128.1763126 541.92168228 -128.8363126 541.59168228 -129.5163126 541.25168228 C-129.5163126 539.27168228 -129.5163126 537.29168228 -129.5163126 535.25168228 C-130.5063126 534.92168228 -131.4963126 534.59168228 -132.5163126 534.25168228 C-132.58978916 533.31195572 -132.58978916 533.31195572 -132.6647501 532.35324478 C-132.73951572 531.53597916 -132.81428135 530.71871353 -132.8913126 529.87668228 C-132.99572666 528.65851822 -132.99572666 528.65851822 -133.1022501 527.41574478 C-133.34523848 525.04834038 -133.34523848 525.04834038 -135.5163126 523.25168228 C-135.84964593 520.91834895 -136.18297927 518.58501561 -136.5163126 516.25168228 C-137.1763126 515.59168228 -137.8363126 514.93168228 -138.5163126 514.25168228 C-138.76701093 511.39704138 -138.76701093 511.39704138 -138.76799488 507.65769672 C-138.7723552 506.62483124 -138.7723552 506.62483124 -138.77680361 505.57109979 C-138.78416049 503.24066871 -138.77713405 500.91049627 -138.77027988 498.58006668 C-138.77258208 496.90168352 -138.77575697 495.22330137 -138.77973437 493.54492134 C-138.78812429 488.91476418 -138.78393817 484.28468891 -138.77776194 479.65453136 C-138.77325548 474.66809003 -138.78021221 469.68166324 -138.78572178 464.69522476 C-138.79463702 454.91936695 -138.79268426 445.14353977 -138.7868965 435.36768074 C-138.78238811 427.42534012 -138.78176353 419.48300811 -138.78394413 411.54066658 C-138.7842506 410.4122317 -138.78455706 409.28379683 -138.78487282 408.12116696 C-138.78551224 405.82908821 -138.78616066 403.53700947 -138.786818 401.24493074 C-138.7925276 379.72788895 -138.78595367 358.21086418 -138.77521726 336.69382518 C-138.7662824 318.2149741 -138.76783205 299.73614814 -138.77705479 281.25729752 C-138.7877484 259.82120075 -138.79197694 238.38511891 -138.78583026 216.94901985 C-138.78519313 214.66485115 -138.78456439 212.38068245 -138.78394413 210.09651375 C-138.78363558 208.97253298 -138.78332703 207.84855221 -138.78300913 206.69051142 C-138.78127936 198.75449816 -138.78420336 190.81849433 -138.78890324 182.88248253 C-138.79450204 173.21566127 -138.79301682 163.54887251 -138.78234175 153.88205499 C-138.77707133 148.94607675 -138.77505149 144.01015277 -138.78164005 139.07417488 C-138.78757347 134.56087811 -138.78436781 130.0476862 -138.77368495 125.53439903 C-138.77143977 123.89646308 -138.77261202 122.25851839 -138.77743652 120.62058801 C-138.78346735 118.40410015 -138.77733217 116.18797736 -138.76799488 113.97150898 C-138.76767018 112.73736289 -138.76734547 111.5032168 -138.76701093 110.23167235 C-138.5163126 107.25168228 -138.5163126 107.25168228 -136.5163126 104.25168228 C-136.2688126 102.48824478 -136.2688126 102.48824478 -136.0163126 100.68918228 C-135.5163126 97.25168228 -135.5163126 97.25168228 -133.5163126 95.25168228 C-132.83690793 92.82453022 -132.83690793 92.82453022 -132.3913126 90.12668228 C-132.22373447 89.21660416 -132.05615635 88.30652603 -131.8835001 87.36886978 C-131.76232822 86.67019791 -131.64115635 85.97152603 -131.5163126 85.25168228 C-130.8563126 85.25168228 -130.1963126 85.25168228 -129.5163126 85.25168228 C-129.5163126 83.27168228 -129.5163126 81.29168228 -129.5163126 79.25168228 C-128.5263126 78.75668228 -128.5263126 78.75668228 -127.5163126 78.25168228 C-126.78937356 76.27279267 -126.11815009 74.27213671 -125.5163126 72.25168228 C-124.8563126 72.25168228 -124.1963126 72.25168228 -123.5163126 72.25168228 C-123.5163126 70.60168228 -123.5163126 68.95168228 -123.5163126 67.25168228 C-122.5263126 66.75668228 -122.5263126 66.75668228 -121.5163126 66.25168228 C-120.84190129 64.58813438 -120.1762805 62.92101286 -119.5163126 61.25168228 C-118.0163126 58.93918228 -118.0163126 58.93918228 -116.5163126 57.25168228 C-115.8563126 57.25168228 -115.1963126 57.25168228 -114.5163126 57.25168228 C-114.5163126 56.26168228 -114.5163126 55.27168228 -114.5163126 54.25168228 C-113.5263126 54.25168228 -112.5363126 54.25168228 -111.5163126 54.25168228 C-111.5163126 53.26168228 -111.5163126 52.27168228 -111.5163126 51.25168228 C-110.8563126 51.25168228 -110.1963126 51.25168228 -109.5163126 51.25168228 C-108.8563126 49.60168228 -108.1963126 47.95168228 -107.5163126 46.25168228 C-106.8563126 46.25168228 -106.1963126 46.25168228 -105.5163126 46.25168228 C-105.1863126 44.93168228 -104.8563126 43.61168228 -104.5163126 42.25168228 C-103.8563126 42.25168228 -103.1963126 42.25168228 -102.5163126 42.25168228 C-102.1863126 41.26168228 -101.8563126 40.27168228 -101.5163126 39.25168228 C-100.8563126 39.25168228 -100.1963126 39.25168228 -99.5163126 39.25168228 C-99.1863126 38.26168228 -98.8563126 37.27168228 -98.5163126 36.25168228 C-97.5263126 36.25168228 -96.5363126 36.25168228 -95.5163126 36.25168228 C-95.1863126 35.26168228 -94.8563126 34.27168228 -94.5163126 33.25168228 C-91.93558357 30.92902616 -91.06455192 30.25168228 -87.5163126 30.25168228 C-87.5163126 29.26168228 -87.5163126 28.27168228 -87.5163126 27.25168228 C-86.5263126 27.25168228 -85.5363126 27.25168228 -84.5163126 27.25168228 C-84.0213126 25.76668228 -84.0213126 25.76668228 -83.5163126 24.25168228 C-82.1963126 24.25168228 -80.8763126 24.25168228 -79.5163126 24.25168228 C-79.0213126 22.76668228 -79.0213126 22.76668228 -78.5163126 21.25168228 C-76.8663126 21.25168228 -75.2163126 21.25168228 -73.5163126 21.25168228 C-73.0213126 19.76668228 -73.0213126 19.76668228 -72.5163126 18.25168228 C-70.86639678 17.5445755 -69.1955364 16.88605572 -67.5163126 16.25168228 C-66.5675626 15.57105728 -65.6188126 14.89043228 -64.6413126 14.18918228 C-61.14769568 12.02313979 -58.55138146 11.71726715 -54.5163126 11.25168228 C-53.8563126 10.59168228 -53.1963126 9.93168228 -52.5163126 9.25168228 C-50.52459078 8.56067675 -48.52469456 7.89265525 -46.5163126 7.25168228 C-46.1863126 6.92168228 -45.8563126 6.59168228 -45.5163126 6.25168228 C-43.22946921 5.96974269 -40.94267987 5.80391224 -38.64521885 5.63058853 C-36.30703857 5.42391593 -36.30703857 5.42391593 -34.5163126 3.25168228 C-32.13374424 2.96457291 -32.13374424 2.96457291 -29.17646885 2.90793228 C-28.11363682 2.87828384 -27.05080479 2.84863541 -25.95576572 2.81808853 C-24.28417393 2.78521744 -24.28417393 2.78521744 -22.5788126 2.75168228 C-20.3820083 2.70833269 -18.18534847 2.65662759 -15.98896885 2.59543228 C-15.01194004 2.57674088 -14.03491123 2.55804947 -13.02827549 2.53879166 C-8.37466724 2.00689902 -5.07514344 -0.0327169 0 0 Z " fill="#454AFE" transform="translate(1835.5163125991821,730.7483177185059)"/>
<path d="M0 0 C0.99 0.33 1.98 0.66 3 1 C3 121.45 3 241.9 3 366 C1 365 1 365 0.3125 363.4375 C-0.04494071 360.64946248 0.33999462 358.17747244 0.73828125 355.41015625 C1.3688189 349.60356325 1.41800812 343.62704226 0.5 337.85766602 C-0.04986588 333.61526816 -0.14399332 329.52029582 -0.1328125 325.25 C-0.13376923 324.43305664 -0.13472595 323.61611328 -0.13571167 322.77441406 C-0.13638857 321.05663984 -0.13456865 319.33886298 -0.13037109 317.62109375 C-0.12501589 315.00775346 -0.13033278 312.39458501 -0.13671875 309.78125 C-0.13605788 308.10416629 -0.13477654 306.42708269 -0.1328125 304.75 C-0.13483673 303.97688477 -0.13686096 303.20376953 -0.13894653 302.40722656 C-0.13579437 301.66956055 -0.13264221 300.93189453 -0.12939453 300.171875 C-0.12859894 299.5334668 -0.12780334 298.89505859 -0.12698364 298.23730469 C0 296 0 296 0.5 293.0845356 C1.25149039 287.87737262 1.13781645 282.66077792 1.12698364 277.41012573 C1.12854363 276.24794372 1.13010362 275.0857617 1.13171089 273.88836205 C1.13500184 270.67577065 1.13382756 267.46321724 1.13072467 264.2506268 C1.1284582 260.78095377 1.13195636 257.31128579 1.13470459 253.84161377 C1.13914763 247.05031489 1.13819241 240.25902707 1.13529195 233.46772777 C1.13303254 227.94877158 1.13272773 222.42981849 1.13381577 216.91086197 C1.133969 216.12505142 1.13412223 215.33924087 1.13428011 214.52961788 C1.13459984 212.93322928 1.13492405 211.33684067 1.1352527 209.74045207 C1.1381031 194.77727236 1.13482716 179.81409879 1.12945233 164.8509201 C1.12498295 152.01079913 1.12576219 139.17068721 1.13037109 126.33056641 C1.1357216 111.41741256 1.13783029 96.50426407 1.13475883 81.5911094 C1.13444028 80.00124176 1.13412591 78.41137413 1.13381577 76.8215065 C1.13366149 76.03926766 1.13350721 75.25702882 1.13334826 74.45108577 C1.13248467 68.93750105 1.13394256 63.42391973 1.13629532 57.91033554 C1.13909872 51.19311728 1.13834354 44.47591072 1.13301457 37.7586938 C1.13038515 34.33126819 1.12935971 30.90386208 1.13266373 27.47643661 C1.13538525 23.76290712 1.13198171 20.04943292 1.12698364 16.33590698 C1.12921436 15.25021671 1.13144509 14.16452644 1.13374341 13.04593647 C1.13113566 12.05101377 1.12852791 11.05609108 1.12584114 10.03101921 C1.12567879 9.17398773 1.12551644 8.31695625 1.12534916 7.43395412 C0.99349729 4.87373434 0.56251605 2.49812246 0 0 Z " fill="#6872FF" transform="translate(1574,2006)"/>
<path d="M0 0 C11.83034731 -0.0694002 23.66064649 -0.1227604 35.49115562 -0.15543652 C40.98408555 -0.17111656 46.47687659 -0.19239742 51.96972656 -0.22631836 C57.26705929 -0.2588285 62.56425813 -0.27683538 67.86168289 -0.28463173 C69.88638035 -0.29019028 71.91107019 -0.30104422 73.93571091 -0.31719017 C76.76378169 -0.3388536 79.59129368 -0.3419716 82.41943359 -0.34057617 C83.26316025 -0.351362 84.1068869 -0.36214783 84.97618103 -0.3732605 C87.30477905 -0.36076355 87.30477905 -0.36076355 91 0 C91.99 1.485 91.99 1.485 93 3 C81.16965269 3.0694002 69.33935351 3.1227604 57.50884438 3.15543652 C52.01591445 3.17111656 46.52312341 3.19239742 41.03027344 3.22631836 C35.73294071 3.2588285 30.43574187 3.27683538 25.13831711 3.28463173 C23.11361965 3.29019028 21.08892981 3.30104422 19.06428909 3.31719017 C16.23621831 3.3388536 13.40870632 3.3419716 10.58056641 3.34057617 C9.31497643 3.35675491 9.31497643 3.35675491 8.02381897 3.3732605 C5.69522095 3.36076355 5.69522095 3.36076355 2 3 C1.34 2.01 0.68 1.02 0 0 Z " fill="#5A61FF" transform="translate(1836,1347)"/>
<path d="M0 0 C0.66 0 1.32 0 2 0 C2 23.76 2 47.52 2 72 C0 71 0 71 -0.6875 69.4375 C-1.04494071 66.64946248 -0.66000538 64.17747244 -0.26171875 61.41015625 C0.3683391 55.6079817 0.42047713 49.63332013 -0.5 43.86865234 C-1.05614259 39.56560769 -1.14392808 35.40572696 -1.1328125 31.07421875 C-1.13376923 30.24541702 -1.13472595 29.4166153 -1.13571167 28.56269836 C-1.13638826 26.82394331 -1.13457058 25.08518566 -1.13037109 23.34643555 C-1.12498114 20.67816577 -1.13035116 18.01006171 -1.13671875 15.34179688 C-1.13605854 13.64843713 -1.13477857 11.95507748 -1.1328125 10.26171875 C-1.13483673 9.46279709 -1.13686096 8.66387543 -1.13894653 7.84074402 C-1.11498308 2.22996616 -1.11498308 2.22996616 0 0 Z " fill="#5D5DFF" transform="translate(1575,2300)"/>
<path d="M0 0 C0.66 0 1.32 0 2 0 C2 14.52 2 29.04 2 44 C1.34 44 0.68 44 0 44 C0.01740234 42.06447266 0.01740234 42.06447266 0.03515625 40.08984375 C0.0445412 38.37239729 0.05364064 36.65494925 0.0625 34.9375 C0.07087891 34.08994141 0.07925781 33.24238281 0.08789062 32.36914062 C0.10683627 27.46221806 -0.27897762 22.86270905 -1 18 C-1.13593872 15.22759224 -1.14043222 12.46272809 -1.125 9.6875 C-1.12886719 8.97271484 -1.13273437 8.25792969 -1.13671875 7.52148438 C-1.12678867 2.25357734 -1.12678867 2.25357734 0 0 Z " fill="#6165FF" transform="translate(1575,1494)"/>
<path d="M0 0 C0.66 0 1.32 0 2 0 C2 9.24 2 18.48 2 28 C0 27 0 27 -0.6875 25.4375 C-1.03693574 22.71190123 -0.6593369 20.33928681 -0.2578125 17.63671875 C0.31349498 11.79380135 0.06874716 5.86642402 0 0 Z " fill="#676FFF" transform="translate(1575,2344)"/>
<path d="M0 0 C0.33 0.66 0.66 1.32 1 2 C2.258125 1.608125 3.51625 1.21625 4.8125 0.8125 C6.95703125 0.14453125 6.95703125 0.14453125 9 0 C9.99 0.99 10.98 1.98 12 3 C7.05 3 2.1 3 -3 3 C-2.01 2.01 -1.02 1.02 0 0 Z " fill="#1D20B0" transform="translate(1845,2534)"/>
<path d="M0 0 C0 0.66 0 1.32 0 2 C-3.63 2.33 -7.26 2.66 -11 3 C-7.47541893 -0.52458107 -4.86090765 -0.09001681 0 0 Z " fill="#0000AE" transform="translate(1435,1694)"/>
<path d="M0 0 C2.31 0 4.62 0 7 0 C7.33 0.99 7.66 1.98 8 3 C5.125 3.1875 5.125 3.1875 2 3 C1.34 2.01 0.68 1.02 0 0 Z " fill="#4545E4" transform="translate(1386,1694)"/>
<path d="M0 0 C2.31 0 4.62 0 7 0 C7 0.99 7 1.98 7 3 C4.69 2.67 2.38 2.34 0 2 C0 1.34 0 0.68 0 0 Z " fill="#676FFF" transform="translate(1932,1347)"/>
<path d="M0 0 C3.375 -0.1875 3.375 -0.1875 7 0 C7.66 0.99 8.32 1.98 9 3 C2.84765625 2.4140625 2.84765625 2.4140625 1 2 C0.67 1.34 0.34 0.68 0 0 Z " fill="#6971FF" transform="translate(2250,1347)"/>
<path d="M0 0 C0.33 1.32 0.66 2.64 1 4 C0.01 4.33 -0.98 4.66 -2 5 C-2.33 5.99 -2.66 6.98 -3 8 C-3.66 7.67 -4.32 7.34 -5 7 C-3.88820837 3.66462511 -2.52588702 2.36292656 0 0 Z " fill="#3A3CD4" transform="translate(892,800)"/>
<path d="M0 0 C0.33 0 0.66 0 1 0 C1 1.65 1 3.3 1 5 C-0.98 5.99 -0.98 5.99 -3 7 C-3.33 6.01 -3.66 5.02 -4 4 C-3.01 3.67 -2.02 3.34 -1 3 C-0.67 2.01 -0.34 1.02 0 0 Z " fill="#3436EC" transform="translate(1737,767)"/>
<path d="M0 0 C1.8125 0.05078125 1.8125 0.05078125 4 0.3125 C4.721875 0.39113281 5.44375 0.46976563 6.1875 0.55078125 C7.0846875 0.77314453 7.0846875 0.77314453 8 1 C8.33 1.66 8.66 2.32 9 3 C2.9453125 3.1953125 2.9453125 3.1953125 1 3 C0.34 2.34 -0.32 1.68 -1 1 C-0.67 0.67 -0.34 0.34 0 0 Z " fill="#0000B4" transform="translate(998,1694)"/>
</svg>
